<?xml version="1.0" encoding="utf-8"?>
<!-- Generator: Adobe Illustrator 16.0.0, SVG Export Plug-In . SVG Version: 6.00 Build 0)  -->
<!DOCTYPE svg PUBLIC "-//W3C//DTD SVG 1.1//EN" "http://www.w3.org/Graphics/SVG/1.1/DTD/svg11.dtd">
<svg version="1.1" id="Layer_1" xmlns="http://www.w3.org/2000/svg" xmlns:xlink="http://www.w3.org/1999/xlink" x="0px" y="0px"
	 width="595.28px" height="841.89px" viewBox="0 0 595.28 841.89" enable-background="new 0 0 595.28 841.89" xml:space="preserve">
<g>
	
	<path fill-rule="evenodd" clip-rule="evenodd" d="M506.775,551.968c-0.72,4.707-0.956,8.275-1.883,11.654
		c-0.726,2.647-2.266,5.08-3.516,7.572c-5.73,11.422-11.63,22.761-17.189,34.265c-5.004,10.353-12.586,18.557-20.851,26.261
		c-0.696,0.648-1.681,1.467-2.499,1.432c-11.253-0.477-18.337,8.106-26.733,13.158c-5.302,3.189-7.96,10.613-12.126,15.883
		c-7.536,9.531-14.522,19.697-23.235,28.035c-7.188,6.88-16.375,10.626-27.533,7.938c-5.806-1.399-12.408,0.587-18.658,0.906
		c-1.967,0.101-3.995-0.047-5.929-0.422c-8.366-1.621-12.381-8.049-14.293-15.204c-2.34-8.761-7.841-15.07-14.531-19.847
		c-8.814-6.292-13.941-14.042-15.225-24.607c-0.066-0.544-0.631-1.027-1.381-2.182c-1.062,2.381-2.325,4.136-2.616,6.039
		c-1.382,9.057-7.44,15.181-14.043,20.119c-7.169,5.363-12.239,11.713-15.686,19.782c-1.536,3.595-3.573,7.021-5.726,10.298
		c-5.487,8.355-13.434,7.729-21.816,5.845c-4.923-1.107-10.001-2.489-14.95-2.286c-7.58,0.312-14.868-0.95-20.885-4.909
		c-5.766-3.794-10.801-9.09-15.168-14.521c-5.931-7.374-11.884-15.03-16.036-23.449c-3.944-8-11.451-10.48-17.755-14.755
		c-5.165-3.502-11.463-5.28-16.964-8.351c-8.657-4.83-14.592-12.773-18.94-21.128c-8.068-15.5-14.828-31.69-21.879-47.704
		c-1.348-3.061-1.495-6.643-2.272-9.966c-0.251-1.073-0.441-2.463-1.182-3.071c-6.455-5.302-9.391-12.142-10.846-20.316
		c-0.776-4.361-4.202-8.261-6.476-12.344c-4.574-8.214-5.838-17.256-6.766-26.406c-0.178-1.758-1.134-3.45-1.224-5.199
		c-0.203-3.936,0.081-7.897-0.144-11.831c-0.31-5.411-1.528-10.84-1.231-16.199c0.424-7.649,1.98-15.23,2.816-22.866
		c0.301-2.747-0.382-5.599-0.105-8.352c1.245-12.379,2.316-24.794,4.176-37.086c1.06-7.004,3.546-13.788,5.316-20.689
		c0.283-1.104,0.463-2.373,0.212-3.455c-2.892-12.467,1.707-23.379,6.748-34.301c1.892-4.1,2.68-8.713,4.607-12.792
		c2.157-4.563,5.123-8.737,7.571-13.173c1.794-3.25,3.565-6.553,4.913-10.001c2.366-6.053,4.354-12.252,6.586-18.358
		c2.408-6.591,4.034-13.677,7.596-19.586c4.593-7.619,3.577-16.48,7.031-24.097c3.3-7.276,6.178-15.356,11.495-20.938
		c5.51-5.784,6.401-12.266,8.057-19.018c0.425-1.732,0.607-3.843,1.706-5.04c8.777-9.561,14.752-21.447,28.227-26.914
		c11.793-4.784,22.121-13.098,33.369-19.361c3.577-1.992,8.029-2.413,12.083-3.547c3.421-0.958,7.089-1.411,10.221-2.954
		c9.893-4.876,19.747-8.655,31.215-6.248c4.037,0.848,8.519-0.709,12.774-0.547c4.042,0.154,8.3,0.488,11.998,1.933
		c2.909,1.136,5.919,3.621,7.459,6.32c3.325,5.829,5.591,12.087,5.431,19.184c-0.092,4.104,1.568,8.249,2.75,13.836
		c1.09-2.352,2.078-3.442,1.968-4.406c-1.229-10.67,3.733-19.799,8.054-28.711c2.277-4.697,8.516-6.461,14.062-6.709
		c3.375-0.15,6.796,1.017,10.191,0.993c4.051-0.028,8.132-1.229,12.14-0.977c8.206,0.516,15.966,2.465,23.249,6.917
		c3.498,2.14,8.412,2.255,12.743,2.673c7.562,0.729,14.55,3.697,19.212,9.021c7.814,8.926,18.172,12.887,28.4,17.125
		c7.343,3.042,11.999,8.71,16.884,14.236c2.883,3.263,4.946,7.27,7.248,11.021c1.461,2.382,4.098,5.116,3.773,7.338
		c-1.636,11.209,8.111,16.638,12,24.96c3.326,7.119,7.046,13.886,8.221,21.878c0.872,5.931,3.979,11.624,4.313,17.523
		c0.61,10.73,9.254,17.484,11.952,27.109c1.872,6.674,3.859,13.736,7.666,19.358c7.564,11.176,10.033,24.404,16.127,36.12
		c1.704,3.276,1.25,7.661,1.856,11.526c1.525,9.725,0.403,19.701,3.766,29.333c1.57,4.501,0.466,9.882,1.001,14.817
		c0.327,3.019,1.504,5.939,2.229,8.922c0.961,3.951,1.856,7.918,2.769,11.881c0.073,0.319,0.126,0.678,0.061,0.991
		c-2.903,13.94,3.662,27.556,1.39,41.5c-0.766,4.695-1.724,9.565-1.249,14.219c1.564,15.312-3.191,29.421-9.153,42.754
		c-3.626,8.109-7.562,16.138-11.081,24.355C511.213,547.477,508.223,550.101,506.775,551.968z M439.683,597.532v0.015
		c0.026-1.377-0.468-3.096,0.171-4.072c2.677-4.094,1.108-7.922-0.269-11.79c-3.085-8.666-6.236-17.308-9.346-25.914
		c-6.824,4.409-14.501,1.318-22.453-1.037c2.9,8.031-1.318,13.47-6.372,16.512c-12.492,7.521-26.306,10.719-40.778,11.647
		c-4.521,0.29-9.005,1.387-13.468,2.3c-6.278,1.284-12.374,2.872-18.941,0.797c-8.109-2.562-16.457-4.375-25.169-6.633
		c-0.124,2.551-0.295,4.024-0.251,5.492c0.387,12.756,1.056,25.508,1.14,38.265c0.059,8.976,0.812,17.7,4.222,26.103
		c3.066,7.556,9.706,13.125,18.23,13.443c7.488,0.28,15.09,0.779,22.469-0.166c6.701-0.859,13.262-3.268,19.702-5.517
		c3.407-1.189,3.446-3.029,0.208-5.543c-3.562-2.764-7.075-6.138-9.249-10.01c-3.229-5.753-4.078-6.28-10.964-4.475
		c-4.88,1.28-10.05,1.312-16.153-0.605c6.436-0.65,11.536-1.1,16.617-1.708c2.407-0.288,4.971-1.699,7.132-1.19
		c8.722,2.055,17.175,2.555,25.416-1.709c0.646-0.334,1.497-0.271,2.253-0.394c-0.149,1.16-0.543,1.743-1.056,1.881
		c-5.501,1.472-10.966,3.175-16.554,4.2c-4.53,0.83-5.416,2.001-3.144,6.062c3.433,6.136,11.983,8.56,20.784,5.803
		c3.214-1.007,6.365-2.213,9.546-3.328c0.202,0.546,0.404,1.093,0.607,1.639c-2.084,0.819-4.149,1.69-6.255,2.448
		c-4.428,1.595-10.238,1.868-13.065,4.921c-9.248,9.989-21.447,9.037-32.96,10.381c-5.365,0.626-10.96-0.716-15.913-1.121
		c4.133,8.668,7.73,16.973,12.066,24.873c1.399,2.549,4.606,5.495,7.213,5.729c7.594,0.682,15.303,0.085,22.967-0.014
		c1.36-0.018,2.893-0.475,4.055-0.007c8.509,3.426,16.503,1.037,22.455-4.474c8.625-7.986,16.059-17.298,23.663-26.329
		c2.975-3.533,5.036-7.835,7.514-11.787c-0.382-0.312-0.764-0.622-1.146-0.934c-2.794,2.189-5.86,4.109-8.323,6.623
		c-4.964,5.067-9.26,10.824-14.447,15.632c-8.649,8.015-18.863,12.38-31.021,11.615c-7.141-0.449-14.324-0.208-21.485-0.391
		c-1.06-0.026-2.104-0.681-3.154-1.044c0.042-0.406,0.083-0.812,0.125-1.217c5.646-0.48,11.402-1.859,16.909-1.189
		c5.574,0.679,10.979,2.029,16.659,1.039c10.158-1.771,17.945-7.028,24.383-15.041c4.287-5.336,9.043-10.562,14.486-14.639
		c7.506-5.622,15.62-10.566,23.932-14.928c5.471-2.871,9.819-8.693,17.23-7.448c1.167,0.196,2.952-0.95,3.867-1.99
		c4.571-5.198,9.792-10.079,13.22-15.979c7.306-12.577,13.847-25.615,20.289-38.668c2.828-5.729,7.153-11.203,5.618-19.639
		c-5.581,1.235-10.9,2.463-16.242,3.583c-5.473,1.147-10.968,2.189-16.622,3.311c0.632-0.583,1.262-1.64,2.121-1.88
		c7.197-2.019,14.376-4.179,21.683-5.716c7.026-1.479,13.358-3.646,16.528-10.753c1.185-2.656,2.011-5.477,2.944-8.24
		c2.652-7.862,0.598-12.885-7.021-15.834c-5.405-2.092-8.644-5.714-10.211-11.177c-1.718-5.99-5.305-11.436-10.62-13.849
		c-9.909-4.499-19.674-0.125-28.852,3.666c-5.049,2.086-9.367,5.937-14.016,8.991c-0.39-0.353-0.78-0.706-1.171-1.059
		c0.168,2.503,0.335,5.007,0.507,7.586c10.093-2.9,19.511-5.628,28.965-8.227c0.294-0.08,0.954,1.176,1.582,1.988
		c-4.433,1.255-8.419,2.19-12.271,3.516c-7.36,2.529-14.942,4.681-21.863,8.13c-5.487,2.734-10.502,6.764-15.045,10.956
		c-5.579,5.148-10.552,10.976-15.584,16.688c-2.553,2.897-1.387,5.146,2.038,6.376c3.054,1.097,6.101,2.227,9.199,3.185
		c6.228,1.925,10.826-0.516,12.922-6.626c0.386-1.123,1.191-2.103,2.302-4c0.183,1.868,0.29,2.797,0.363,3.729
		c0.412,5.23-0.011,10.698,1.405,15.641c2.537,8.854,5.812,17.549,9.456,26.018c4.324,10.046,6.472,10.41,15.903,4.628
		c0.905-0.556,2.207-0.464,3.325-0.672c0.148,0.46,0.297,0.92,0.445,1.38c-3.925,1.778-8.086,5.333-11.709,4.85
		c-3.859-0.515-7.209-4.851-10.972-7.659C441.819,593.593,440.751,595.562,439.683,597.532z M408.591,238.493l0.111,0.114
		c6.393-3.539,12.7-6.581,20.518-4.096c3.235,1.028,7.071,0.17,11.078,0.17c-1.665-5.143-3.135-9.682-4.604-14.222
		c0.474-0.166,0.947-0.332,1.421-0.499c3.534,8.712,5.703,18.386,10.977,25.871c5.568,7.904,14.099,13.723,21.581,20.682
		c4.971-6.638,9.193-2.136,14.102,0.666c-0.784-3.568-1.308-6.398-2.035-9.174c-1.801-6.866-4.932-12.211-13.303-11.964
		c-1.098,0.032-2.244-1.613-3.367-2.481c0.217-0.362,0.435-0.726,0.651-1.089c3.918,1.134,7.836,2.268,12.683,3.67
		c-2.249-21.16-16.798-34.642-27.284-50.603c2.184,1.769,4.367,3.537,7.085,5.739c-0.124-1.707,0.118-2.84-0.312-3.582
		c-3.501-6.027-6.5-12.504-10.903-17.805c-3.983-4.795-9.071-9.119-14.505-12.165c-10.396-5.828-21.706-9.48-30.477-18.653
		c-8.119-8.491-19.353-11.151-31.359-8.407c-2.383,0.545-4.997,0.079-7.505,0.079c-0.065-0.538-0.131-1.076-0.197-1.613
		c2.14-0.478,4.28-0.955,7.518-1.678c-6.473-4.066-12.849-5.771-19.449-6.105c-4.677-0.236-9.408,0.95-14.121,0.999
		c-3.562,0.037-7.287-1.558-10.662-0.932c-5.332,0.989-11.186,2.13-13.066,8.689c-0.053,0.188,0.236,0.476,0.379,0.739
		c1.304-0.312,2.613-0.624,3.923-0.937c-7.626,4.066-8.095,11.818-10.722,19.116c2.59-1.437,4.617-2.562,6.646-3.687
		c-6.1,6.563-8.934,14.038-8.941,22.819c2.391-4.936,6.308-6.979,11.309-7.245c-12.564,7.097-12.686,16.537-11.037,28.954
		c9.015-15.559,20.978-25.301,40.021-22.163c-2.729,1.126-5.705,2.894-8.196,2.367c-4.108-0.869-7.447,0.233-11.035,1.562
		c-7.984,2.956-11.973,10.135-16.82,16.231c-1.996,2.509-2.285,6.374-3.311,9.5c3.145,0,5.594,0,8.043,0
		c-1.141,1.582-2.54,2.392-3.914,2.351c-4.057-0.12-5.549,1.532-5.578,5.652c-0.043,5.927-1.026,11.845-1.125,17.774
		c-0.198,11.829-0.131,23.664-0.029,35.495c0.025,3.057,1.186,5.393,4.926,5.614c5.741,0.34,11.464,0.984,17.197,1.481
		c13.009,1.126,26.019,2.24,39.028,3.359c-5.57,5.419,3.479,7.744,1.635,11.089c-3.583-3.14-6.725-6.993-10.775-9.084
		c-3.114-1.608-7.369-1.051-11.124-1.365c-12.941-1.083-25.885-2.125-39.498-3.238c-0.563,3.853-1.344,6.877-1.388,9.911
		c-0.155,10.664-0.052,21.331-0.057,31.997c-0.007,15.165,0.064,30.331-0.09,45.494c-0.044,4.269,1.444,6.054,5.846,5.877
		c2.917-0.117,5.862,0.845,8.81,0.972c4.484,0.192,8.987,0.226,13.473,0.061c6.43-0.236,12.851-0.959,19.274-0.96
		c2.444,0,4.888,1.424,7.332,2.199c-0.184,0.407-0.367,0.815-0.551,1.223c-3.21-0.246-6.429-0.784-9.628-0.68
		c-6.929,0.227-13.846,1.084-20.77,1.11c-5.914,0.022-11.846-0.623-17.744-1.22c-4.57-0.463-5.863,2.108-5.922,5.87
		c-0.098,6.165-0.027,12.332-0.028,18.498c0,9.957,0,19.914,0,30.181c11.108-1.137,20.446-8.963,33.005-6.293
		c-6.213,1.434-11.178,2.288-15.954,3.759c-5.14,1.582-10.616,2.952-15.028,5.826c-7.285,4.746-7.041,13.58-7.353,20.757
		c-0.444,10.235,1.585,20.583,2.623,30.876c0.278,2.763,0.903,5.489,1.183,8.252c0.455,4.489,3.083,8.34,7.113,8.103
		c4.752-0.279,10.034-2.072,13.867-4.876c5.148-3.767,9.131-9.129,13.801-14.002c0.041,0.734,0.284,1.404,0.063,1.64
		c-4.95,5.271-9.709,10.756-15.027,15.63c-3.493,3.201-6.946,6.514-5.625,11.285c1.888,6.818,4.921,13.32,7.458,19.96
		c0.282,0.74,0.518,1.499,0.775,2.25c-0.441,0.145-0.883,0.289-1.324,0.434c-5.839-8.998-11.381-18.093-8.214-29.797
		c-2.327,0.231-4.14,0.67-5.898,0.509c-1.621-0.148-3.184-0.94-4.697-1.426c-0.812,2.689-1.437,4.697-2.024,6.716
		c-2.043,7.008-0.063,10.835,6.885,13.347c4.9,1.771,7.809,7.948,6.029,12.812c-1.01-7.447-5.953-12.634-11.658-10.929
		c0,7.409-0.406,14.943,0.102,22.415c0.654,9.627-3.837,19.086-0.261,28.871c1.296,3.544,2.617,5.34,6.37,5.497
		c2.914,0.122,6.117,0.086,8.658,1.27c10.697,4.982,21.382,5.835,32.536,1.68c2.868-1.068,6.12-1.497,9.203-1.531
		c10.979-0.122,21.781-1.545,31.78-6.028c5.05-2.264,10.618-5.439,13.583-9.81c4.562-6.725-0.402-12.508-5.037-17.698
		c-2.146-2.404-3.781-5.265-5.648-7.919c0.444-0.282,0.889-0.564,1.334-0.847c0.528,0.717,1.152,1.382,1.571,2.158
		c4.287,7.957,4.328,7.889,10.912,1.548c6.675-6.428,13.583-12.612,20.323-18.973c3.302-3.115,6.933-6.046,9.543-9.686
		c2.595-3.619,1.458-7.843-1.648-9.145c-9.144-3.831-18.337-7.543-26.04-10.699c-6.49,6.021-12.912,11.978-20.08,18.627
		c2.638-1.191,4.382-2.033,6.167-2.771c1.72-0.711,3.483-1.315,5.228-1.967c0.163,0.456,0.326,0.912,0.489,1.368
		c-16.986,7.442-33.974,14.884-50.96,22.325c4.919-3.726,10.188-6.859,15.692-9.499c9.148-4.387,19.159-7.2,25.746-15.852
		c3.187-4.186,7.151-7.78,10.327-11.973c2.533-3.347,4.361-7.221,6.59-10.807c0.977-1.571,2.169-3.009,3.263-4.508
		c0.323,0.275,0.646,0.551,0.969,0.827c-0.567,1.331-1.037,2.714-1.72,3.983c-2.069,3.849-1.552,7.056,2.588,8.884
		c6.858,3.028,13.83,5.799,20.765,8.652c7.409,3.049,14.059,1.271,19.372-4.19c5.268-5.414,9.405-11.956,14.825-17.189
		c6.709-6.478,11.593-14.018,14.927-22.479c1.703-4.322,3.401-9.706,2.288-13.855c-2.343-8.732-6.599-16.945-9.951-25.418
		c-1.385-3.5-2.468-7.12-3.688-10.686c0.602-0.218,1.204-0.436,1.806-0.653c3.591,14.172,14.393,25.421,15.004,41.482
		c3.18-1.241,5.809-2.438,8.542-3.304c8.086-2.561,16.248-4.885,24.3-7.544c2.098-0.693,5.005-1.867,5.612-3.526
		c1.28-3.495,1.91-7.5,1.659-11.218c-0.337-4.99-1.668-9.927-2.757-14.845c-0.481-2.173-1.834-4.202-2.062-6.372
		c-0.557-5.294,0.714-11.247-1.295-15.817c-3.642-8.287-1.796-16.907-3.597-25.184c-1.553-7.138-2.094-14.613-4.549-21.409
		c-3.426-9.481-8.183-18.485-12.437-27.662c-2.228-4.805-5.53-9.323-6.717-14.355c-2.812-11.926-7.466-22.413-18.235-29.092
		c-1.454-0.901-3.915-0.178-5.909-0.207c0.338,1.612,0.257,3.496,1.094,4.784c2.405,3.706,5.278,7.104,7.784,10.749
		c2.478,3.604,4.731,7.362,7.083,11.053c-0.528,0.344-1.058,0.688-1.587,1.032c-3.371-4.946-6.63-9.974-10.141-14.818
		c-4.811-6.637-9.69-12.994-16.12-18.504c-7.849-6.725-17.421-12.747-19.4-24.396c-2.373,0.138-4.454,0.253-6.533,0.381
		c-7.35,0.451-14.698,0.913-22.048,1.355C411.086,238.438,409.831,238.442,408.591,238.493z M210.181,572.478
		c-0.287,0.599-0.574,1.197-0.86,1.796c-3.876-1.974-8.273-3.331-11.507-6.064c-5.023-4.246-2.846-10.563-2.745-16.704
		c-2.06,0.802-3.653,1.687-5.355,2.03c-4.245,0.858-8.896,2.828-12.718,1.822c-4.29-1.13-4.983,0.8-6.004,3.408
		c-2.082,5.316-3.64,10.865-6.059,16.016c-2.637,5.615-4.906,10.582-1.269,16.969c3.23,5.672,6.993,9.644,13.523,10.689
		c1.206,0.193,2.367,0.667,3.549,1.011c-0.241,0.504-0.482,1.009-0.723,1.513c-10.827-0.057-16.003-8.219-21.244-17.027
		c-1.058,1.913-1.555,2.922-2.149,3.87c-3.921,6.257-10.546,8.315-16.001,4.739c-1.91-1.252-3.407-3.148-5.044-4.799
		c-2.815-2.838-5.788-2.679-8.917-0.586c-0.827,0.553-1.692,1.048-3.383,2.089c4.323-7.634,8.852-7.753,15.305-1.385
		c7.273,7.18,12.22,6.512,16.955-2.624c3.397-6.556,6.563-13.248,9.495-20.024c3.096-7.156,5.48-14.547,4.244-22.557
		c-0.344-2.229-0.801-4.441-1.206-6.662c0.482-0.117,0.965-0.235,1.448-0.353c0.479,1.416,0.926,2.845,1.443,4.247
		c1.211,3.289,0.879,7.465,5.015,9.107c4.389,1.743,16.663-2.151,19.403-5.94c-4.554-5.712-8.592-11.849-13.697-16.909
		c-6.312-6.256-12.875-12.755-20.518-17.021c-6.457-3.604-14.612-4.16-22.008-6.094c-2.072-0.542-4.119-1.183-6.177-1.777
		c0.164-0.517,0.328-1.032,0.493-1.549c8.573,1.78,17.147,3.562,25.758,5.351c0.516-2.375,1.013-4.664,1.396-6.426
		c-3.851-1.38-7.765-1.989-10.72-4.006c-6.259-4.271-13.254-6.164-20.364-8.08c-6.289-1.695-15.171,2.012-18.134,7.901
		c-1.389,2.759-2.095,6.222-4.208,8.186c-5.085,4.728-10.652,8.998-16.354,12.981c-3.287,2.296-5.201,4.465-3.451,8.548
		c0.438,1.021,0.461,2.222,0.667,3.341c1.398,7.62,4.062,14.442,12.453,16.673c7.23,1.922,14.529,3.724,21.906,4.902
		c5.148,0.822,9.751,2.042,13.032,6.666c-11.273-6.379-24.073-5.45-36.473-8.935c0.835,3.576,1.131,6.411,2.151,8.956
		c6.972,17.396,12.835,35.338,23.491,51.007c5.19,7.632,10.7,15.057,19.584,19.064c6.208,2.8,12.459,5.632,18.276,9.138
		c8.402,5.064,18.119,8.935,23.53,17.5c4.754,7.527,11.22,12.73,18.118,17.74c5.591,4.062,11.114,7.98,18.832,6.818
		c4.693-0.707,9.58-0.13,14.38-0.13c0.01,0.478,0.02,0.955,0.029,1.433c-5.647,0.485-11.29,1.055-16.946,1.41
		c-1.95,0.123-4.327,0.363-5.84-0.554c-10.652-6.456-21.807-12.266-29.063-23.135c-2.145-3.212-5.516-5.605-8.325-8.374
		c-0.371,0.317-0.742,0.635-1.112,0.953c1.197,1.869,2.305,3.805,3.61,5.597c3.574,4.908,7.507,9.578,10.801,14.663
		c8.136,12.56,18.22,21.389,34.397,20.797c5.197-0.19,10.486,0.798,15.665,1.659c13.124,2.181,17.246,2.935,24.378-10.67
		c4.402-8.396,7.938-17.369,16.654-22.691c2.914-1.779,5.938-3.957,7.853-6.693c7.001-10.005,10.889-21.088,10.506-33.546
		c-0.275-8.991-0.203-18.002,0.02-26.996c0.128-5.146,0.868-10.276,1.326-15.35c-7.456,1.644-14.444,3.186-21.433,4.724
		c-4.442,0.977-8.651,1.97-13.408,0.229c-3.896-1.426-8.426-1.34-12.69-1.494c-6.159-0.223-12.387,0.449-18.479-0.224
		c-4.592-0.507-9.016-2.525-13.515-3.871c0.181-0.833,0.361-1.665,0.542-2.498c8.769,5.934,18.35,2.885,27.574,3.769
		c6.315,0.604,12.568,1.822,18.873,2.568c2.455,0.291,5.021,0.338,7.456-0.032c4.354-0.662,8.705-1.519,12.951-2.682
		c3.755-1.028,7.367-2.583,10.409-3.677c-0.494-3.98-1.168-6.553-1.055-9.09c0.26-5.906,1.365-11.803,1.287-17.691
		c-0.157-11.896-1.105-23.782-1.248-35.678c-0.059-4.95,1.109-9.914,1.627-14.124c-3.917,1.843-8.177,3.846-12.81,6.024
		c-0.505,7.545,0.953,16.181-4.889,23.113c0.807-5.947,2.584-11.754,3.045-17.664c0.29-3.711-0.462-8.171-2.411-11.237
		c-3.142-4.942-7.611-9.055-11.622-13.424c-1.155-1.258-2.662-2.193-4.008-3.276c0.256-0.364,0.513-0.729,0.77-1.092
		c1.459,0.887,3.211,1.503,4.328,2.707c4.488,4.84,9.321,9.499,12.963,14.938c2.616,3.904,5.94,2.129,7.667,1.241
		c2.432-1.25,5.262-4.529,5.338-7.021c0.21-6.851-0.826-13.753-1.569-20.613c-0.398-3.682-1.21-7.318-1.824-10.905
		c-2.521,0.472-4.787,1.457-6.877,1.169c-4.178-0.575-8.798-0.941-12.278-3.007c-9.974-5.918-19.478-4.409-29.183,0.126
		c-10.857,5.073-21.543,3.646-31.705-1.668c-4.571-2.39-8.032-7.031-12.686-9.101c-5.199-2.312-11.354-4.28-16.752-3.619
		c-2.971,0.363-6.123,6.101-7.623,10.018c-2.2,5.744-2.868,12.06-4.433,18.068c-0.917,3.524-4.182,6.608-5.507,6.697
		c1.812-4.932,4.043-10.167,5.642-15.589c1.739-5.898,1.459-12.462,6.066-17.37c0.191-0.205-0.031-0.798-0.014-0.558
		c-4.313-1.064-8.23-2.032-12.945-3.195c-2.477,3.228-5.473,7.131-8.469,11.034c-0.389-0.319-0.779-0.639-1.168-0.958
		c1.481-2.109,3.168-4.107,4.394-6.357c1.752-3.216,4.093-6.488,2.043-10.442c-6.201-11.963-9.085-24.733-9.744-38.129
		c-0.583-11.868-3.533-14.476-15.597-14.532c-1.985-0.009-3.989-0.059-5.951-0.329c-6.509-0.899-12.447,0.282-17.898,4.128
		c-2.536,1.788-5.283,3.453-8.18,4.483c-1.561,0.556-3.64-0.347-5.485-0.591c0.067-0.543,0.134-1.086,0.201-1.629
		c4.469-0.644,9.713,0.452,12.373-5.098c-10.053-5.329-11.745-15.271-14.417-24.75c1.334,0.79,2.526,1.817,3.035,3.112
		c1.495,3.81,2.392,7.878,4.117,11.566c3.11,6.65,8.466,9.517,15.312,7.599c10.662-2.987,20.738-0.964,31.467,2.418
		c2.728-6.565,5.507-13.257,8.288-19.949c0.476,0.174,0.951,0.348,1.427,0.521c-1.056,3.147-1.913,6.379-3.211,9.422
		c-2.326,5.452-4.645,10.752-4.064,16.994c1.292,13.895,3.408,27.562,8.802,40.556c3.183,7.667,8.201,12.152,17.08,10.476
		c0.806-0.152,1.667,0.018,2.494-0.058c9.876-0.899,18.704,1.129,26.564,7.768c7.396,6.246,15.739,11.072,26.089,9.116
		c4.453-0.842,9.007-1.863,13.108-3.708c8.84-3.979,17.28-4.489,25.956,0.394c2.957,1.665,6.388,2.547,9.675,3.552
		c5.851,1.788,8.812-0.569,9.165-6.771c0.165-2.896,0.566-5.85,1.379-8.625c2.148-7.332,2.469-14.139-5.144-18.544
		c-6.73-3.896-13.425-8.315-21.952-5.712c-1.372,0.419-2.98,0.06-4.479,0.06c0.039-0.573,0.078-1.146,0.116-1.72
		c6.214-1.568,12.006-1.037,18.52,1.282c6.396,2.277,11.743,5.382,16.691,10.379c-0.518-19.771,2.43-39.22-1.475-58.302
		c-17.765,0-35.192,0-52.62,0c-0.038-0.531-0.076-1.062-0.114-1.594c1.503-0.161,3.005-0.445,4.509-0.461
		c5.666-0.062,11.337,0.109,16.999-0.076c9.252-0.303,18.503-0.742,27.742-1.326c1.25-0.079,3.097-1.062,3.505-2.088
		c1.009-2.541,1.859-5.348,1.873-8.054c0.14-25.498,0.137-50.998,0.044-76.498c-0.013-3.615-1.403-6.188-5.966-5.932
		c-12.052,0.677-24.191,0.423-36.159,1.758c-7.891,0.88-16.398,2.43-19.926,11.634c-0.142,0.37-1.002,0.465-1.528,0.688
		c1.719-4.007,3.355-8.686,6.589-10.471c4.875-2.692,10.787-4.157,16.401-4.726c10.839-1.099,21.781-1.178,32.676-1.76
		c1.426-0.076,3.021-0.315,4.18-1.046c1.023-0.646,2.058-2.019,2.207-3.182c0.688-5.383,1.281-10.796,1.515-16.214
		c0.562-13.064,1.097-26.135,1.279-39.208c0.21-15.036-9.979-29.054-24.179-33.581c-3.304-1.054-6.812-1.469-10.226-2.179
		c7.322-1.677,14.193-0.077,19.73,4.288c5.338,4.209,9.665,9.699,15.289,15.508c-0.715-5.683-0.461-10.837-2.172-15.225
		c-1.686-4.325-5.361-7.874-8.164-11.764c0.245-0.235,0.491-0.471,0.736-0.706c2.78,2.544,5.56,5.089,9.082,8.312
		c-0.133-10.554-1.171-19.582-9.401-26.147c1.8,0.756,3.6,1.512,5.057,2.124c2.068-8.197-3.054-12.764-7.64-17.604
		c1.397,0.741,2.794,1.483,5.246,2.785c-3.684-8.567-10.33-9.918-16.98-10.35c-7.763-0.503-15.666-0.808-23.354,0.1
		c-7.151,0.844-14.101,3.394-21.139,5.192c2.315,2.143,4.526,3.03,6.76,3.855c1.689,0.625,3.407,1.171,5.112,1.753
		c-0.154,0.46-0.308,0.921-0.461,1.382c-12.494-4.02-24.938-4.146-36.64,2.125c-11.007,5.899-21.32,13.113-32.411,18.831
		c-6.076,3.133-11.114,7.111-15.501,12.055c-2.704,3.046-5.057,6.471-7.146,9.977c-2.342,3.929-4.209,8.141-6.485,12.627
		c5.568-4.246,10.112-8.089,15.047-11.338c3.258-2.145,6.375-3.926,7.102-8.242c0.224-1.329,1.646-2.457,2.52-3.677
		c-0.209,7.927-4.661,12.205-11.196,14.926c-1.712,0.713-3.309,2.126-4.502,3.589c-4.371,5.358-8.073,11.344-12.901,16.229
		c-9.254,9.363-13.302,20.913-16.216,33.573c4.144-0.91,7.821-1.719,11.632-2.557c0.568,1.876-0.029,3.347-2.936,3.075
		c-4.75-0.442-7.201,2.663-9.29,5.608c-2.629,3.708-4.416,8.043-6.307,12.225c-0.509,1.126-0.077,2.678-0.077,4.674
		c4.07-3.31,7.461-5.505,12.287-3.254c1.337,0.623,4.201-0.546,5.583-1.772c4.353-3.864,8.544-7.962,12.401-12.32
		c3.828-4.323,7.174-9.072,11.063-14.06c-2.731-0.678-4.282-1.062-5.833-1.448c0.061-0.272,0.121-0.545,0.181-0.818
		c1.916-0.126,3.832-0.252,5.728-0.376c1.275-5.522,1.952-11.092,7.208-14.415c-1.477,4.624-2.954,9.247-4.691,14.688
		c7.563,0,13.929-1.027,19.759,0.299c5.459,1.241,10.352,4.977,15.837,7.79c-4.24-7.551-8.352-14.869-12.458-22.19
		c-0.946-1.686-2.229-3.28-2.745-5.091c-1.916-6.716-4.2-12.959-13.105-13.608c0.815-1.136,1.353-2.076,1.473-2.025
		c3.369,1.417,6.695,2.934,9.832,4.345c0.867-1.355,1.983-3.099,3.098-4.842c-0.819,8.637-0.244,16.139,6.027,22.542
		c1.938,1.979,2.757,5.052,4.098,7.62c3.593,6.881,7.191,13.76,11.629,22.25c3.062-9.444,10.549-8.001,16.178-10.182
		c-2.657,2.015-5.683,3.258-8.767,4.333c-3.686,1.285-5.995,5.196-4.97,8.887c0.468,1.683,1.208,3.29,1.944,5.25
		c2.249-1.014,4.333-1.883,6.356-2.878c9.191-4.518,18.895-6.374,28.875-4.01c8.2,1.943,15.505,2.911,19.759-7.804
		c-0.193,8.888-8.522,13.525-16.59,11.305c-5.146-1.417-10.917-2.866-15.958-1.918c-13.411,2.523-25.617,8.003-34.747,18.883
		c-9.872,11.765-13.699,24.788-8.714,39.728c3.098,9.283,6.721,18.404,9.502,27.777c2.284,7.699,3.673,15.664,5.74,24.744
		c5.117-3.807,9.886-6.543,13.612-10.31c6.094-6.16,11.007-13.456,19.587-16.888c1.447-0.579,3.052-5.126,2.301-6.128
		c-4.769-6.361-8.127-14.411-17.109-16.447c-1.746-0.396-3.558-0.802-5.111-1.631c-1.066-0.568-1.738-1.876-2.587-2.853
		c6.773,3.623,13.545,4.371,16.979,0.591c6.648-7.318,23.813-9.991,32.698-4.749c3.651,2.154,6.813,5.138,10.198,7.743
		c-0.28,0.344-0.561,0.688-0.841,1.032c-1.803-1.106-3.724-2.061-5.389-3.345c-9.076-7.002-23.148-7.645-32.628-1.304
		c-3.813,2.55-5.574,6.139-1.644,10.576c1.433,1.618,2.896,3.285,4.622,4.555c6.715,4.941,5.093,13.484-2.872,16.09
		c-3.11,1.018-6.319,3.001-8.469,5.439c-5.49,6.225-10.083,13.198-17.995,16.962c-2.323,1.105-4.943,3.413-5.65,5.716
		c-1.617,5.261-2.397,10.83-3.014,16.33c-0.458,4.093-0.811,8.628,5.284,9.323c0.823,0.095,1.559,0.959,2.208,1.384
		c-3.589,0.789-7.168,1.274-10.531,2.404c-3.157,1.062-6.084,2.804-9.112,4.246c-0.269-0.588-0.537-1.176-0.806-1.764
		c2.938-1.394,6.074-2.497,8.726-4.308c1.276-0.872,2.203-3.042,2.316-4.69c0.41-5.973-0.715-12.292,0.871-17.876
		c1.645-5.794,0.56-9.928-3.684-13.051c-5.376-3.959-11.298-7.188-17.054-10.618c-11.396-6.792-25.224-5.626-35.097,2.998
		c-3.616,3.159-7.024,6.556-10.615,9.926c0.062-0.674-0.155-1.687,0.254-2.209c2.713-3.461,2.656-6.877,1.442-11.1
		c-1.282-4.466-2.183-9.636-1.136-13.988c0.86-3.574,0.075-4.505-2.589-5.284c-2.008-0.587-4.119-0.89-6.206-1.13
		c-4.241-0.489-8.8-0.038-12.667-1.48c-4.361-1.625-7.505-0.8-9.971,2.384c-2.273,2.937-3.771,6.472-5.879,10.22
		c-0.308-1.148-1.015-2.262-0.752-3.054c2.057-6.208,5.904-10.901,12.083-12.896c-0.39-2.171-0.682-3.804-0.975-5.437
		c2.727,5.397,6.598,8.52,12.519,8.795c3.16,0.147,6.333-0.024,9.499,0.025c5.517,0.087,9.432,2.77,12.074,8.286
		c-1.554-0.334-3.014-0.649-5.438-1.172c0.751,6.58,1.419,12.424,2.188,19.154c3.503-2.478,5.756-4.085,8.023-5.672
		c9.619-6.729,24.938-7.003,33.805-1.709c6.952,4.151,13.921,8.273,21.04,12.502c-1.696-6.778-3.092-13.743-5.208-20.481
		c-2.976-9.478-7.136-18.625-9.536-28.228c-1.546-6.186-1.964-13.122-0.908-19.389c2.035-12.079,9.045-21.577,18.903-28.831
		c3.211-2.363,2.72-4.755,1.427-8.062c-2.992-7.647-10.588-10.54-15.691-15.971c-1.425-1.518-3.878-2.756-5.93-2.87
		c-6.462-0.362-12.96-0.229-19.437-0.043c-1.278,0.037-2.873,0.858-3.73,1.837c-8.356,9.535-16.624,19.149-24.834,28.812
		c-2.774,3.265-5.239,6.791-7.977,10.088c-5.995,7.217-11.35,15.193-18.333,21.296c-6.402,5.594-11.273,11.587-14.109,19.46
		c-1.71,4.749-3.615,9.427-5.437,14.135c-2.23,5.764-5.1,11.377-6.494,17.335c-1.096,4.684-0.353,9.793-0.463,14.713
		c-0.037,1.653,0.051,3.359-0.322,4.947c-2.638,11.239-6.209,22.335-7.83,33.713c-1.3,9.124-0.262,18.579-0.299,27.888
		c-0.004,0.979-0.255,1.959-0.408,2.936c-1.255,8.044-2.979,16.051-3.604,24.143c-0.399,5.185,0.973,10.487,1.246,15.752
		c0.112,2.155-1.098,4.422-0.817,6.519c0.991,7.414,2.166,14.817,3.651,22.147c1.456,7.187,3.447,14.247,8.826,20.174
		c4.07-2.466,7.923-4.864,11.838-7.156c5.278-3.091,9.476-7.155,11.377-13.087c3.001-9.367,9.843-12.436,18.967-11.942
		c3.498,0.188,6.99,0.476,11.084,0.759c-0.854-1.309-1.334-2.315-2.053-3.104c-8.433-9.255-16.467-18.737-20.729-30.839
		c-0.843-2.393-2.637-4.502-4.21-6.578c-5.567-7.346-14.242-8.448-22.269-10.582c-3.623-0.964-6.521,0.924-7.215,4.946
		c-0.584,3.388-1.021,6.809-1.343,10.231c-0.552,5.882-1.136,11.771-1.386,17.669c-0.247,5.819-0.44,11.683,0.019,17.473
		c0.242,3.054,1.926,5.994,2.958,8.985c-0.655,0.2-1.31,0.4-1.965,0.6c-1.363-5.077-3.646-10.114-3.87-15.241
		c-0.321-7.349,1.114-14.756,1.336-22.151c0.257-8.553,0.051-17.111,5.276-23.718c-1.724-1.696-3.156-3.104-4.587-4.513
		c0.345-0.31,0.69-0.619,1.035-0.929c11.192,7.094,26.547,5.419,35.603,18.097c0.582-5.732,0.215-10.542,1.668-14.719
		c3.238-9.304,7.385-18.29,11.326-27.801c0.579,0.713,1.513,1.434,1.39,1.778c-1.479,4.154-2.646,8.517-4.789,12.321
		c-9.365,16.621-9.166,32.848,2.034,48.351c5.761,7.975,12.236,15.478,18.837,22.788c4.857,5.379,11.576,7.67,18.558,5.869
		c7.553-1.948,14.922-4.855,22.085-7.997c7.73-3.391,8.3-5.964,4.223-13.048c-0.413-0.717-0.867-1.41-1.302-2.114
		c0.46-0.28,0.92-0.562,1.38-0.842c1.188,1.895,2.943,3.645,3.475,5.709c3.84,14.905,14.1,24.146,27.052,30.951
		c6.54,3.437,13.4,6.259,19.993,9.601c4.862,2.465,9.395,5.461,11.742,10.845c-14.474-14.924-35.447-17.036-53.038-25.7
		c0.256-0.539,0.512-1.079,0.768-1.618c2.919,1.201,5.838,2.401,8.898,3.661c-4.813-5.636-9.156-10.885-13.733-15.921
		c-0.803-0.884-2.814-1.538-3.883-1.173c-7.416,2.53-14.856,5.071-22.008,8.243c-2.537,1.125-5.061,3.665-6.217,6.188
		c-1.703,3.714,1.422,6.499,4.218,8.071c11.169,6.279,17.15,17.343,25.232,26.472c3.905,4.41,7.288,5.124,10.54,0.682
		c1.026-1.402,2.558-2.435,3.858-3.637c0.523,1.117,0.561,1.737,0.278,1.971c-7.291,6.021-10.409,13.621-9.403,23.105
		c0.358,3.381,1.561,5.609,4.668,6.906C204.762,569.994,207.46,571.262,210.181,572.478z M522.71,499.638
		c-0.442-0.201-0.885-0.401-1.327-0.603c0.724-1.583,1.419-3.179,2.177-4.745c2.056-4.252,3.873-8.19,2.375-13.452
		c-1.452-5.102-2.414-11.032-1.214-16.028c1.61-6.711,0.565-12.774-1.005-18.955c-1.207-4.753-3.402-5.414-8.198-3.812
		c-2.62,0.874-5.385,1.328-8.099,1.905c-9.728,2.072-18.733,4.239-22.396,15.872c-3.578,11.361-12.956,19.216-20.646,27.968
		c-1.206,1.372-2.363,2.785-3.606,4.256c0.824,0.511,0.986,0.695,1.104,0.67c0.771-0.16,1.527-0.392,2.298-0.554
		c5.457-1.148,10.209-3.867,16.625-2.392c9.063,2.086,13.811,7.36,16.852,15.236c1.793,4.644,3.531,8.994,8.563,11.479
		c4.096,2.021,7.628,5.185,12,8.256c0.31-0.443,1.446-1.573,2.001-2.938c5.751-14.158,10.361-28.472,9.865-44.162
		c-0.354-11.209,0.827-22.46,1.034-33.698c0.041-2.238-0.625-5.757-2.044-6.438c-1.834-0.88-4.751,0.497-6.962,0.863
		c1.47,3.274,3.208,5.701,3.603,8.328c0.827,5.517,1.059,11.134,1.327,16.72c0.263,5.473-0.852,11.288,0.643,16.363
		C530.099,487.999,526.053,493.527,522.71,499.638z M132.424,266.554c-3.77-3.121-7.4-2.646-11.749,1.072
		c-6.307,5.394-8.934,12.83-11.549,20.275c-0.731,2.082-1.027,4.317-1.819,7.773C119.408,287.632,124.875,276.216,132.424,266.554z"
		/>
	<path fill-rule="evenodd" clip-rule="evenodd" fill="#FFFFFF" d="M210.181,572.478c-2.721-1.216-5.419-2.484-8.168-3.631
		c-3.107-1.297-4.31-3.525-4.668-6.906c-1.005-9.484,2.113-17.085,9.403-23.105c0.282-0.233,0.245-0.854-0.278-1.971
		c-1.3,1.202-2.832,2.234-3.858,3.637c-3.252,4.442-6.635,3.729-10.54-0.682c-8.082-9.129-14.063-20.192-25.232-26.472
		c-2.796-1.572-5.921-4.357-4.218-8.071c1.157-2.523,3.681-5.063,6.217-6.188c7.151-3.172,14.592-5.713,22.008-8.243
		c1.069-0.365,3.08,0.289,3.883,1.173c4.577,5.036,8.919,10.285,13.733,15.921c-3.06-1.26-5.979-2.46-8.898-3.661
		c-0.256,0.539-0.512,1.079-0.768,1.618c17.591,8.664,38.564,10.776,53.038,25.7c-2.347-5.384-6.88-8.38-11.742-10.845
		c-6.593-3.342-13.453-6.164-19.993-9.601c-12.952-6.805-23.211-16.046-27.052-30.951c-0.532-2.064-2.287-3.814-3.475-5.709
		c-0.46,0.28-0.92,0.562-1.38,0.842c0.435,0.704,0.89,1.397,1.302,2.114c4.078,7.084,3.507,9.657-4.223,13.048
		c-7.163,3.142-14.533,6.049-22.085,7.997c-6.982,1.801-13.701-0.49-18.558-5.869c-6.601-7.311-13.076-14.813-18.837-22.788
		c-11.199-15.503-11.398-31.729-2.034-48.351c2.143-3.805,3.31-8.167,4.789-12.321c0.123-0.345-0.811-1.065-1.39-1.778
		c-3.941,9.511-8.088,18.497-11.326,27.801c-1.453,4.177-1.086,8.986-1.668,14.719c-9.056-12.678-24.411-11.003-35.603-18.097
		c-0.345,0.31-0.69,0.619-1.035,0.929c1.432,1.408,2.863,2.816,4.587,4.513c-5.225,6.606-5.02,15.165-5.276,23.718
		c-0.222,7.396-1.657,14.803-1.336,22.151c0.224,5.127,2.506,10.164,3.87,15.241c0.655-0.199,1.31-0.399,1.965-0.6
		c-1.033-2.991-2.717-5.932-2.958-8.985c-0.459-5.79-0.266-11.653-0.019-17.473c0.25-5.898,0.834-11.787,1.386-17.669
		c0.322-3.423,0.759-6.844,1.343-10.231c0.693-4.022,3.592-5.91,7.215-4.946c8.026,2.134,16.702,3.236,22.269,10.582
		c1.573,2.076,3.367,4.186,4.21,6.578c4.262,12.102,12.296,21.584,20.729,30.839c0.719,0.789,1.199,1.796,2.053,3.104
		c-4.095-0.283-7.587-0.57-11.084-0.759c-9.124-0.493-15.965,2.575-18.967,11.942c-1.901,5.932-6.099,9.996-11.377,13.087
		c-3.916,2.292-7.769,4.69-11.838,7.156c-5.379-5.927-7.37-12.987-8.826-20.174c-1.486-7.33-2.661-14.733-3.651-22.147
		c-0.28-2.097,0.929-4.363,0.817-6.519c-0.273-5.265-1.646-10.567-1.246-15.752c0.624-8.092,2.349-16.099,3.604-24.143
		c0.152-0.977,0.403-1.956,0.408-2.936c0.037-9.309-1.001-18.764,0.299-27.888c1.621-11.378,5.192-22.474,7.83-33.713
		c0.373-1.588,0.285-3.294,0.322-4.947c0.11-4.92-0.632-10.029,0.463-14.713c1.394-5.958,4.264-11.571,6.494-17.335
		c1.822-4.708,3.727-9.386,5.437-14.135c2.836-7.873,7.707-13.866,14.109-19.46c6.983-6.103,12.338-14.079,18.333-21.296
		c2.738-3.297,5.203-6.823,7.977-10.088c8.21-9.662,16.478-19.276,24.834-28.812c0.857-0.979,2.453-1.8,3.73-1.837
		c6.477-0.186,12.975-0.319,19.437,0.043c2.052,0.114,4.505,1.353,5.93,2.87c5.103,5.431,12.7,8.323,15.691,15.971
		c1.293,3.307,1.784,5.698-1.427,8.062c-9.858,7.254-16.868,16.752-18.903,28.831c-1.056,6.267-0.638,13.203,0.908,19.389
		c2.4,9.603,6.56,18.75,9.536,28.228c2.116,6.738,3.513,13.703,5.208,20.481c-7.119-4.229-14.088-8.351-21.04-12.502
		c-8.867-5.294-24.187-5.02-33.805,1.709c-2.267,1.587-4.52,3.194-8.023,5.672c-0.769-6.73-1.436-12.574-2.188-19.154
		c2.425,0.522,3.884,0.838,5.438,1.172c-2.643-5.517-6.557-8.199-12.074-8.286c-3.166-0.05-6.339,0.122-9.499-0.025
		c-5.92-0.275-9.792-3.397-12.519-8.795c0.292,1.633,0.585,3.266,0.975,5.437c-6.179,1.994-10.026,6.688-12.083,12.896
		c-0.262,0.792,0.445,1.905,0.752,3.054c2.107-3.748,3.606-7.283,5.879-10.22c2.465-3.184,5.61-4.009,9.971-2.384
		c3.867,1.442,8.426,0.991,12.667,1.48c2.087,0.24,4.198,0.543,6.206,1.13c2.664,0.779,3.449,1.71,2.589,5.284
		c-1.047,4.353-0.146,9.522,1.136,13.988c1.213,4.223,1.271,7.639-1.442,11.1c-0.409,0.522-0.192,1.535-0.254,2.209
		c3.591-3.37,6.999-6.767,10.615-9.926c9.873-8.624,23.701-9.79,35.097-2.998c5.755,3.43,11.677,6.659,17.054,10.618
		c4.243,3.123,5.329,7.257,3.684,13.051c-1.586,5.584-0.461,11.903-0.871,17.876c-0.113,1.648-1.04,3.818-2.316,4.69
		c-2.652,1.811-5.789,2.914-8.726,4.308c0.269,0.588,0.537,1.176,0.806,1.764c3.028-1.442,5.956-3.185,9.112-4.246
		c3.363-1.13,6.942-1.615,10.531-2.404c-0.649-0.425-1.385-1.289-2.208-1.384c-6.095-0.695-5.742-5.23-5.284-9.323
		c0.616-5.5,1.397-11.069,3.014-16.33c0.708-2.303,3.328-4.61,5.65-5.716c7.911-3.764,12.504-10.737,17.995-16.962
		c2.15-2.438,5.359-4.422,8.469-5.439c7.965-2.605,9.587-11.148,2.872-16.09c-1.726-1.27-3.189-2.937-4.622-4.555
		c-3.93-4.438-2.169-8.026,1.644-10.576c9.479-6.341,23.552-5.698,32.628,1.304c1.665,1.284,3.586,2.238,5.389,3.345
		c0.28-0.344,0.561-0.688,0.841-1.032c-3.385-2.605-6.547-5.589-10.198-7.743c-8.885-5.242-26.05-2.569-32.698,4.749
		c-3.434,3.78-10.206,3.032-16.979-0.591c0.849,0.977,1.521,2.284,2.587,2.853c1.554,0.829,3.366,1.235,5.111,1.631
		c8.982,2.036,12.34,10.086,17.109,16.447c0.751,1.002-0.854,5.549-2.301,6.128c-8.58,3.432-13.493,10.728-19.587,16.888
		c-3.727,3.767-8.495,6.503-13.612,10.31c-2.067-9.08-3.457-17.045-5.74-24.744c-2.781-9.373-6.404-18.494-9.502-27.777
		c-4.985-14.939-1.158-27.963,8.714-39.728c9.13-10.88,21.336-16.359,34.747-18.883c5.042-0.948,10.812,0.501,15.958,1.918
		c8.067,2.221,16.396-2.417,16.59-11.305c-4.254,10.715-11.56,9.747-19.759,7.804c-9.98-2.364-19.684-0.508-28.875,4.01
		c-2.023,0.995-4.107,1.864-6.356,2.878c-0.736-1.96-1.477-3.567-1.944-5.25c-1.025-3.69,1.284-7.602,4.97-8.887
		c3.084-1.075,6.109-2.318,8.767-4.333c-5.628,2.181-13.116,0.737-16.178,10.182c-4.438-8.49-8.036-15.369-11.629-22.25
		c-1.341-2.568-2.16-5.641-4.098-7.62c-6.271-6.403-6.846-13.905-6.027-22.542c-1.115,1.743-2.231,3.486-3.098,4.842
		c-3.137-1.411-6.463-2.928-9.832-4.345c-0.121-0.051-0.658,0.89-1.473,2.025c8.906,0.649,11.19,6.893,13.105,13.608
		c0.517,1.811,1.799,3.405,2.745,5.091c4.106,7.321,8.218,14.64,12.458,22.19c-5.485-2.813-10.378-6.549-15.837-7.79
		c-5.83-1.326-12.196-0.299-19.759-0.299c1.738-5.441,3.214-10.064,4.691-14.688c-5.257,3.323-5.933,8.893-7.208,14.415
		c-1.896,0.124-3.812,0.25-5.728,0.376c-0.06,0.273-0.121,0.546-0.181,0.818c1.551,0.386,3.103,0.771,5.833,1.448
		c-3.889,4.987-7.236,9.736-11.063,14.06c-3.857,4.358-8.048,8.456-12.401,12.32c-1.382,1.227-4.246,2.396-5.583,1.772
		c-4.825-2.251-8.216-0.056-12.287,3.254c0-1.996-0.432-3.548,0.077-4.674c1.891-4.182,3.677-8.517,6.307-12.225
		c2.089-2.945,4.541-6.051,9.29-5.608c2.906,0.271,3.504-1.199,2.936-3.075c-3.812,0.838-7.489,1.646-11.632,2.557
		c2.915-12.66,6.962-24.21,16.216-33.573c4.828-4.886,8.531-10.871,12.901-16.229c1.193-1.463,2.79-2.876,4.502-3.589
		c6.535-2.721,10.986-6.999,11.196-14.926c-0.874,1.22-2.296,2.348-2.52,3.677c-0.727,4.316-3.844,6.098-7.102,8.242
		c-4.935,3.249-9.479,7.092-15.047,11.338c2.275-4.486,4.143-8.698,6.485-12.627c2.09-3.506,4.442-6.931,7.146-9.977
		c4.388-4.943,9.425-8.922,15.501-12.055c11.091-5.718,21.403-12.932,32.411-18.831c11.702-6.271,24.146-6.145,36.64-2.125
		c0.154-0.461,0.308-0.922,0.461-1.382c-1.705-0.582-3.423-1.128-5.112-1.753c-2.234-0.825-4.445-1.713-6.76-3.855
		c7.038-1.799,13.988-4.349,21.139-5.192c7.688-0.907,15.591-0.603,23.354-0.1c6.65,0.432,13.296,1.782,16.98,10.35
		c-2.452-1.302-3.849-2.044-5.246-2.785c4.586,4.84,9.708,9.406,7.64,17.604c-1.457-0.612-3.257-1.368-5.057-2.124
		c8.23,6.565,9.269,15.594,9.401,26.147c-3.521-3.224-6.301-5.769-9.082-8.312c-0.245,0.235-0.491,0.471-0.736,0.706
		c2.803,3.89,6.479,7.438,8.164,11.764c1.711,4.388,1.457,9.542,2.172,15.225c-5.624-5.809-9.951-11.299-15.289-15.508
		c-5.537-4.365-12.408-5.965-19.73-4.288c3.414,0.71,6.921,1.125,10.226,2.179c14.2,4.527,24.389,18.545,24.179,33.581
		c-0.183,13.073-0.718,26.144-1.279,39.208c-0.233,5.418-0.827,10.831-1.515,16.214c-0.148,1.163-1.183,2.536-2.207,3.182
		c-1.159,0.73-2.754,0.97-4.18,1.046c-10.895,0.582-21.837,0.661-32.676,1.76c-5.614,0.568-11.525,2.033-16.401,4.726
		c-3.233,1.785-4.87,6.464-6.589,10.471c0.525-0.224,1.386-0.318,1.528-0.688c3.528-9.204,12.035-10.754,19.926-11.634
		c11.968-1.335,24.107-1.081,36.159-1.758c4.562-0.257,5.953,2.316,5.966,5.932c0.093,25.5,0.096,51-0.044,76.498
		c-0.014,2.706-0.863,5.513-1.873,8.054c-0.408,1.026-2.254,2.009-3.505,2.088c-9.239,0.584-18.489,1.023-27.742,1.326
		c-5.661,0.186-11.333,0.015-16.999,0.076c-1.504,0.016-3.006,0.3-4.509,0.461c0.038,0.531,0.076,1.062,0.114,1.594
		c17.427,0,34.854,0,52.62,0c3.905,19.082,0.958,38.531,1.475,58.302c-4.948-4.997-10.295-8.102-16.691-10.379
		c-6.513-2.319-12.305-2.851-18.52-1.282c-0.039,0.573-0.078,1.146-0.116,1.72c1.499,0,3.108,0.359,4.479-0.06
		c8.527-2.604,15.222,1.816,21.952,5.712c7.613,4.405,7.292,11.212,5.144,18.544c-0.813,2.775-1.214,5.729-1.379,8.625
		c-0.352,6.202-3.313,8.56-9.165,6.771c-3.287-1.005-6.718-1.887-9.675-3.552c-8.675-4.883-17.116-4.372-25.956-0.394
		c-4.101,1.845-8.655,2.866-13.108,3.708c-10.35,1.956-18.693-2.87-26.089-9.116c-7.86-6.639-16.688-8.667-26.564-7.768
		c-0.827,0.075-1.688-0.095-2.494,0.058c-8.879,1.677-13.897-2.809-17.08-10.476c-5.395-12.994-7.511-26.661-8.802-40.556
		c-0.58-6.242,1.738-11.542,4.064-16.994c1.298-3.043,2.155-6.274,3.211-9.422c-0.476-0.173-0.952-0.347-1.427-0.521
		c-2.78,6.692-5.56,13.384-8.288,19.949c-10.729-3.382-20.805-5.405-31.467-2.418c-6.845,1.918-12.201-0.948-15.312-7.599
		c-1.726-3.688-2.623-7.757-4.117-11.566c-0.508-1.295-1.701-2.322-3.035-3.112c2.672,9.479,4.365,19.421,14.417,24.75
		c-2.66,5.55-7.904,4.454-12.373,5.098c-0.067,0.543-0.134,1.086-0.201,1.629c1.845,0.244,3.924,1.146,5.485,0.591
		c2.897-1.03,5.644-2.695,8.18-4.483c5.452-3.846,11.389-5.027,17.898-4.128c1.962,0.271,3.966,0.32,5.951,0.329
		c12.063,0.057,15.013,2.664,15.597,14.532c0.658,13.396,3.543,26.166,9.744,38.129c2.05,3.954-0.291,7.227-2.043,10.442
		c-1.226,2.25-2.913,4.248-4.394,6.357c0.389,0.319,0.779,0.639,1.168,0.958c2.996-3.903,5.992-7.807,8.469-11.034
		c4.715,1.163,8.632,2.131,12.945,3.195c-0.018-0.24,0.205,0.353,0.014,0.558c-4.607,4.908-4.328,11.472-6.066,17.37
		c-1.599,5.422-3.831,10.657-5.642,15.589c1.326-0.089,4.59-3.173,5.507-6.697c1.564-6.009,2.233-12.324,4.433-18.068
		c1.5-3.917,4.652-9.654,7.623-10.018c5.398-0.661,11.553,1.308,16.752,3.619c4.654,2.069,8.115,6.711,12.686,9.101
		c10.162,5.313,20.848,6.741,31.705,1.668c9.705-4.535,19.209-6.044,29.183-0.126c3.48,2.065,8.101,2.432,12.278,3.007
		c2.09,0.288,4.356-0.697,6.877-1.169c0.613,3.587,1.425,7.224,1.824,10.905c0.744,6.86,1.779,13.763,1.569,20.613
		c-0.076,2.491-2.907,5.771-5.338,7.021c-1.728,0.888-5.052,2.663-7.667-1.241c-3.642-5.438-8.475-10.098-12.963-14.938
		c-1.117-1.204-2.869-1.82-4.328-2.707c-0.256,0.363-0.513,0.728-0.77,1.092c1.346,1.083,2.853,2.019,4.008,3.276
		c4.011,4.369,8.48,8.481,11.622,13.424c1.949,3.066,2.701,7.526,2.411,11.237c-0.461,5.91-2.239,11.717-3.045,17.664
		c5.842-6.933,4.384-15.568,4.889-23.113c4.633-2.179,8.893-4.182,12.81-6.024c-0.518,4.21-1.686,9.174-1.627,14.124
		c0.143,11.896,1.091,23.781,1.248,35.678c0.078,5.889-1.027,11.785-1.287,17.691c-0.113,2.537,0.561,5.109,1.055,9.09
		c-3.042,1.094-6.654,2.648-10.409,3.677c-4.246,1.163-8.596,2.02-12.951,2.682c-2.435,0.37-5,0.323-7.456,0.032
		c-6.305-0.746-12.558-1.964-18.873-2.568c-9.224-0.884-18.806,2.165-27.574-3.769c-0.181,0.833-0.362,1.665-0.542,2.498
		c4.499,1.346,8.923,3.364,13.515,3.871c6.092,0.673,12.321,0.001,18.479,0.224c4.264,0.154,8.794,0.068,12.69,1.494
		c4.757,1.741,8.966,0.748,13.408-0.229c6.989-1.538,13.977-3.08,21.433-4.724c-0.458,5.073-1.198,10.204-1.326,15.35
		c-0.223,8.994-0.295,18.005-0.02,26.996c0.383,12.458-3.505,23.541-10.506,33.546c-1.915,2.736-4.938,4.914-7.853,6.693
		c-8.717,5.322-12.252,14.295-16.654,22.691c-7.132,13.604-11.254,12.851-24.378,10.67c-5.179-0.861-10.467-1.85-15.665-1.659
		c-16.177,0.592-26.261-8.237-34.397-20.797c-3.294-5.085-7.227-9.755-10.801-14.663c-1.305-1.792-2.413-3.728-3.61-5.597
		c0.371-0.318,0.742-0.636,1.112-0.953c2.809,2.769,6.18,5.162,8.325,8.374c7.257,10.869,18.411,16.679,29.063,23.135
		c1.513,0.917,3.89,0.677,5.84,0.554c5.656-0.355,11.299-0.925,16.946-1.41c-0.01-0.478-0.02-0.955-0.029-1.433
		c-4.8,0-9.687-0.577-14.38,0.13c-7.717,1.162-13.241-2.757-18.832-6.818c-6.898-5.01-13.364-10.213-18.118-17.74
		c-5.411-8.565-15.128-12.436-23.53-17.5c-5.817-3.506-12.068-6.338-18.276-9.138c-8.884-4.008-14.394-11.433-19.584-19.064
		c-10.656-15.669-16.52-33.611-23.491-51.007c-1.02-2.545-1.316-5.38-2.151-8.956c12.4,3.484,25.2,2.556,36.473,8.935
		c-3.281-4.624-7.883-5.844-13.032-6.666c-7.377-1.179-14.676-2.98-21.906-4.902c-8.391-2.23-11.055-9.053-12.453-16.673
		c-0.206-1.119-0.229-2.319-0.667-3.341c-1.75-4.083,0.164-6.252,3.451-8.548c5.702-3.983,11.268-8.254,16.354-12.981
		c2.113-1.964,2.819-5.427,4.208-8.186c2.963-5.89,11.845-9.597,18.134-7.901c7.11,1.916,14.105,3.809,20.364,8.08
		c2.955,2.017,6.869,2.626,10.72,4.006c-0.383,1.762-0.88,4.051-1.396,6.426c-8.611-1.789-17.185-3.57-25.758-5.351
		c-0.165,0.517-0.329,1.032-0.493,1.549c2.059,0.595,4.105,1.235,6.177,1.777c7.396,1.934,15.551,2.489,22.008,6.094
		c7.643,4.266,14.206,10.765,20.518,17.021c5.105,5.061,9.144,11.197,13.697,16.909c-2.74,3.789-15.014,7.684-19.403,5.94
		c-4.136-1.643-3.803-5.818-5.015-9.107c-0.517-1.402-0.964-2.831-1.443-4.247c-0.483,0.117-0.966,0.235-1.448,0.353
		c0.405,2.221,0.862,4.433,1.206,6.662c1.236,8.01-1.148,15.4-4.244,22.557c-2.932,6.776-6.097,13.469-9.495,20.024
		c-4.735,9.136-9.682,9.804-16.955,2.624c-6.453-6.368-10.982-6.249-15.305,1.385c1.69-1.041,2.556-1.536,3.383-2.089
		c3.129-2.093,6.102-2.252,8.917,0.586c1.637,1.65,3.134,3.547,5.044,4.799c5.455,3.576,12.08,1.518,16.001-4.739
		c0.594-0.948,1.092-1.957,2.149-3.87c5.241,8.809,10.417,16.971,21.244,17.027c0.241-0.504,0.482-1.009,0.723-1.513
		c-1.182-0.344-2.343-0.817-3.549-1.011c-6.531-1.046-10.293-5.018-13.523-10.689c-3.637-6.387-1.369-11.354,1.269-16.969
		c2.419-5.15,3.977-10.699,6.059-16.016c1.021-2.608,1.714-4.538,6.004-3.408c3.822,1.006,8.474-0.964,12.718-1.822
		c1.702-0.344,3.295-1.229,5.355-2.03c-0.101,6.141-2.278,12.458,2.745,16.704c3.234,2.733,7.631,4.091,11.507,6.064
		C209.607,573.675,209.894,573.077,210.181,572.478z M262.301,150.235c-1.358,1.203-2.757,2.363-4.067,3.615
		c-4.307,4.115-7.232,3.799-10.604-1.009c-0.809-1.154-2.106-1.966-3.179-2.935c-0.213,0.238-0.426,0.478-0.639,0.716
		c1.318,2.311,2.635,4.621,3.731,6.542c-1.613,2.109-2.802,3.664-4.003,5.236c3.855-1.164,7.148-2.885,10.478-2.959
		c3.355-0.074,6.747,1.486,10.123,2.331c0.124-0.264,0.248-0.526,0.372-0.789c-2.101-1.278-4.201-2.558-5.714-3.478
		c1.286-2.674,2.396-4.981,3.506-7.285c4.409-0.243,8.818-0.485,13.228-0.729c-0.054-0.515-0.108-1.029-0.162-1.545
		C270.735,146.229,266.561,148.615,262.301,150.235z M140.833,292.764c1.974-1.148,3.842-2.617,5.964-3.32
		c1.163-0.385,3.686,0.145,3.997,0.911c1.775,4.368,3.228,8.888,4.483,13.44c1.397,5.066,2.466,10.225,3.678,15.342
		c1.434-0.896,2.152-1.941,1.935-2.732c-2.453-8.944-5.138-17.827-7.523-26.79c-0.407-1.53-0.048-3.503,0.573-5.019
		c1.144-2.793,2.745-5.398,4.155-8.082c-1.981,0.674-3.364,1.748-4.044,3.161c-1.916,3.979-4.297,7.029-8.903,8.368
		c-1.719,0.499-2.812,3.152-4.186,4.827c-1.909,4.174-3.817,8.347-5.726,12.521c0.792,0.288,1.584,0.576,2.376,0.864
		C138.687,301.758,139.76,297.261,140.833,292.764z M183.052,584.167c-0.53,0.564-1.06,1.13-1.589,1.694
		c2.514,2.254,5.209,4.339,7.5,6.801c3.659,3.934,7.37,7.893,10.434,12.277c1.908,2.73,1.064,5.698-2.34,7.367
		c-2.51,1.23-4.854,2.868-7.455,3.831c-4.657,1.724-6.984,5.411-6.862,9.772c0.154,5.472,5,7.979,8.895,10.84
		c-0.244-1.439-0.982-2.464-1.848-3.365c-7.46-7.77-5.822-13.296,4.365-17.103c3.866-1.445,7.045-4.725,11.219-7.646
		c5.617,1.77,12.522,4.254,19.601,6.054c4.033,1.025,8.604,2.003,12.478,1.084c5.475-1.299,9.639-0.097,13.649,3.177
		c2.11,1.722,4.094,3.597,6.621,5.832c-1.85-5.68-7.857-10.69-12.643-11.129c-5.053-0.463-10.181-0.567-15.135-1.545
		c-7.644-1.507-15.242-3.377-22.701-5.621c-2.501-0.752-4.742-2.886-6.711-4.792C194.601,595.959,188.863,590.024,183.052,584.167z
		 M240.438,635.795c-1.845,3.624-2.589,6.674-4.495,8.531c-5.882,5.729-13.009,7.558-21.286,5.051c1.861,1.635,3.816,2.624,5.82,3.5
		c2.439,1.067,5.224,1.621,7.323,3.138c5.076,3.667,19.464,7.395,26.367,5.583c-9.745-2.372-19.037-2.323-25.348-7.843
		c4.672-5.057,10.33-9.153,13.011-14.69c2.348-4.849,4.939-4.24,8.517-3.959c4.257,0.334,8.537,0.968,12.772,0.765
		c2.31-0.111,4.55-1.686,7.009-2.675c-6.62,0-12.623-0.188-18.607,0.06c-4.72,0.193-9.412,1.239-14.128,1.336
		c-6.858,0.14-14.019,1.657-20.109-3.521C220.297,637.097,229.687,639.196,240.438,635.795z M187.544,177.84
		c0.345,1.263,0.493,3.434,1.474,5.118c4.003,6.876,9.89,11.634,17.462,14.107c2.937,0.959,6.27,0.93,9.003,2.231
		c3.945,1.88,7.508,4.562,11.161,6.855c-10.1-16.282-0.56-27.844,10.294-39.138c-10.403,7.498-18.54,16.09-16.971,31.211
		c-7.606-2.576-14.61-3.739-20.186-7.201C194.885,187.985,191.59,182.367,187.544,177.84z M239.534,432.333
		c0.282-0.192,0.563-0.385,0.844-0.577c-0.202-2.901-0.977-5.905-0.479-8.681c0.889-4.962,2.44-9.817,3.906-14.66
		c2.246-7.42,6.09-10.559,14.087-11.307c-1.201-0.915-2.408-2.263-2.79-2.06c-4.507,2.398-8.891,5.028-13.448,7.681
		c-14.596-10.258-21.947-13.829-24.091-12.098c6.294,3.722,12.571,7.808,19.192,11.225c4.878,2.518,4.934,5.886,3.854,10.475
		c-1.228,5.216-1.865,10.586-2.458,15.922C238.007,429.545,239.042,430.969,239.534,432.333z M241.706,541.821
		c-0.213,0.377-0.426,0.754-0.639,1.131c1.652,1.562,3.091,3.479,4.993,4.63c10.2,6.175,21.627,7.247,33.149,6.955
		c2.68-0.067,5.297-2.576,7.944-3.962C270.359,554.47,255.348,552.436,241.706,541.821z M244.017,480.605
		c-5.878,3.651-4.721,9.217-3.332,14.417c-2.573,0.905-4.77,1.678-6.965,2.45c-0.054,0.651-0.107,1.303-0.161,1.954
		c8.031-4.593,9.453,3.239,13.845,6.15C242.973,497.548,239.397,489.663,244.017,480.605z M236.43,204.816
		c4.247-2.012,7.199-3.646,10.323-4.827c3.32-1.255,6.802-2.087,10.215-3.094c2.917-0.861,5.837-1.71,8.755-2.564
		C256.751,192.996,241.297,198.557,236.43,204.816z M229.765,210c-6.042,1.68-11.352,9.214-11.384,15.393
		c-0.022,4.36,1.874,7.141,7.848,8.665C214.202,223.275,224.15,217.198,229.765,210z M143.501,215.518
		c0.206,0.626,0.412,1.251,0.617,1.877c1.728,0.426,3.456,0.852,5.157,1.271c0.497,1.781,0.977,3.502,1.458,5.223
		c0.66,0.125,1.319,0.251,1.979,0.377c-1.486-7.192,1.873-12.258,6.2-17.039C153.058,209.216,152.063,218.076,143.501,215.518z
		 M273.06,141.955c-0.098-0.606-0.196-1.214-0.294-1.82c-4.791-0.818-9.437-0.868-13.303,3.048
		C263.995,142.773,268.527,142.364,273.06,141.955z M177.542,276.541c-1.725-3.948-3.263-7.756-8.396-7.875
		c-4.984-0.116-5.562,0.104-7.61,5.267C169.161,265.011,172.625,273.575,177.542,276.541z M96.45,415.86
		c0.523-0.291,1.045-0.582,1.568-0.872c-1.489-3.323-2.979-6.646-4.469-9.969c-0.589,0.271-1.179,0.543-1.768,0.815
		C93.337,409.176,94.894,412.518,96.45,415.86z"/>
	<path fill-rule="evenodd" clip-rule="evenodd" fill="#FFFFFF" d="M408.578,238.48c1.253-0.038,2.508-0.042,3.758-0.118
		c7.35-0.442,14.698-0.904,22.048-1.355c2.079-0.128,4.16-0.243,6.533-0.381c1.979,11.649,11.552,17.672,19.4,24.396
		c6.43,5.51,11.31,11.867,16.12,18.504c3.511,4.845,6.77,9.872,10.141,14.818c0.529-0.345,1.059-0.688,1.587-1.032
		c-2.352-3.69-4.605-7.448-7.083-11.053c-2.506-3.645-5.379-7.043-7.784-10.749c-0.837-1.288-0.756-3.172-1.094-4.784
		c1.994,0.029,4.455-0.694,5.909,0.207c10.77,6.679,15.423,17.166,18.235,29.092c1.187,5.032,4.489,9.551,6.717,14.355
		c4.254,9.177,9.011,18.181,12.437,27.662c2.455,6.796,2.996,14.271,4.549,21.409c1.801,8.276-0.045,16.896,3.597,25.184
		c2.009,4.57,0.738,10.523,1.295,15.817c0.228,2.17,1.58,4.199,2.062,6.372c1.089,4.918,2.42,9.854,2.757,14.845
		c0.251,3.718-0.379,7.723-1.659,11.218c-0.607,1.659-3.515,2.833-5.612,3.526c-8.052,2.659-16.214,4.983-24.3,7.544
		c-2.733,0.865-5.362,2.062-8.542,3.304c-0.611-16.062-11.413-27.311-15.004-41.482c-0.602,0.218-1.204,0.436-1.806,0.653
		c1.221,3.565,2.304,7.186,3.688,10.686c3.353,8.473,7.608,16.686,9.951,25.418c1.113,4.149-0.585,9.533-2.288,13.855
		c-3.334,8.462-8.218,16.002-14.927,22.479c-5.42,5.233-9.558,11.775-14.825,17.189c-5.313,5.461-11.963,7.239-19.372,4.19
		c-6.935-2.854-13.906-5.624-20.765-8.652c-4.14-1.828-4.657-5.035-2.588-8.884c0.683-1.27,1.152-2.652,1.72-3.983
		c-0.323-0.276-0.646-0.552-0.969-0.827c-1.094,1.499-2.286,2.937-3.263,4.508c-2.229,3.586-4.057,7.46-6.59,10.807
		c-3.176,4.192-7.141,7.787-10.327,11.973c-6.587,8.651-16.598,11.465-25.746,15.852c-5.505,2.64-10.773,5.773-15.692,9.499
		c16.986-7.441,33.974-14.883,50.96-22.325c-0.163-0.456-0.326-0.912-0.489-1.368c-1.744,0.651-3.508,1.256-5.228,1.967
		c-1.785,0.738-3.529,1.58-6.167,2.771c7.168-6.649,13.59-12.605,20.08-18.627c7.703,3.156,16.896,6.868,26.04,10.699
		c3.106,1.302,4.243,5.525,1.648,9.145c-2.61,3.64-6.241,6.57-9.543,9.686c-6.74,6.36-13.648,12.545-20.323,18.973
		c-6.584,6.341-6.625,6.409-10.912-1.548c-0.419-0.776-1.043-1.441-1.571-2.158c-0.445,0.282-0.89,0.564-1.334,0.847
		c1.867,2.654,3.502,5.515,5.648,7.919c4.635,5.19,9.599,10.974,5.037,17.698c-2.965,4.37-8.533,7.546-13.583,9.81
		c-9.999,4.483-20.802,5.906-31.78,6.028c-3.083,0.034-6.335,0.463-9.203,1.531c-11.154,4.155-21.839,3.303-32.536-1.68
		c-2.541-1.184-5.744-1.147-8.658-1.27c-3.753-0.157-5.074-1.953-6.37-5.497c-3.576-9.785,0.915-19.244,0.261-28.871
		c-0.508-7.472-0.102-15.006-0.102-22.415c5.705-1.705,10.648,3.481,11.658,10.929c1.779-4.863-1.129-11.04-6.029-12.812
		c-6.948-2.512-8.928-6.339-6.885-13.347c0.588-2.019,1.213-4.026,2.024-6.716c1.514,0.485,3.076,1.277,4.697,1.426
		c1.759,0.161,3.571-0.277,5.898-0.509c-3.167,11.704,2.375,20.799,8.214,29.797c0.441-0.145,0.883-0.289,1.324-0.434
		c-0.258-0.751-0.493-1.51-0.775-2.25c-2.537-6.64-5.57-13.142-7.458-19.96c-1.321-4.771,2.132-8.084,5.625-11.285
		c5.318-4.874,10.077-10.359,15.027-15.63c0.221-0.235-0.022-0.905-0.063-1.64c-4.67,4.873-8.652,10.235-13.801,14.002
		c-3.833,2.804-9.115,4.597-13.867,4.876c-4.03,0.237-6.658-3.613-7.113-8.103c-0.279-2.763-0.904-5.489-1.183-8.252
		c-1.038-10.293-3.067-20.641-2.623-30.876c0.312-7.177,0.067-16.011,7.353-20.757c4.412-2.874,9.889-4.244,15.028-5.826
		c4.776-1.471,9.741-2.325,15.954-3.759c-12.559-2.67-21.896,5.156-33.005,6.293c0-10.267,0-20.224,0-30.181
		c0.001-6.166-0.069-12.333,0.028-18.498c0.059-3.762,1.352-6.333,5.922-5.87c5.898,0.597,11.83,1.242,17.744,1.22
		c6.924-0.026,13.841-0.884,20.77-1.11c3.199-0.104,6.418,0.434,9.628,0.68c0.184-0.407,0.367-0.815,0.551-1.223
		c-2.444-0.775-4.888-2.199-7.332-2.199c-6.424,0.001-12.845,0.724-19.274,0.96c-4.485,0.165-8.988,0.132-13.473-0.061
		c-2.947-0.127-5.893-1.089-8.81-0.972c-4.401,0.177-5.89-1.608-5.846-5.877c0.154-15.163,0.083-30.329,0.09-45.494
		c0.005-10.666-0.099-21.333,0.057-31.997c0.044-3.034,0.824-6.059,1.388-9.911c13.613,1.113,26.557,2.155,39.498,3.238
		c3.755,0.314,8.01-0.243,11.124,1.365c4.051,2.091,7.192,5.944,10.775,9.084c1.844-3.345-7.205-5.67-1.635-11.089
		c-13.01-1.119-26.02-2.233-39.028-3.359c-5.733-0.497-11.456-1.142-17.197-1.481c-3.74-0.222-4.9-2.558-4.926-5.614
		c-0.102-11.831-0.169-23.666,0.029-35.495c0.099-5.93,1.082-11.848,1.125-17.774c0.029-4.12,1.521-5.772,5.578-5.652
		c1.374,0.041,2.773-0.769,3.914-2.351c-2.449,0-4.898,0-8.043,0c1.025-3.126,1.314-6.991,3.311-9.5
		c4.848-6.097,8.836-13.275,16.82-16.231c3.588-1.328,6.927-2.431,11.035-1.562c2.491,0.526,5.467-1.241,8.196-2.367
		c-19.043-3.138-31.006,6.604-40.021,22.163c-1.648-12.417-1.527-21.857,11.037-28.954c-5.001,0.267-8.918,2.31-11.309,7.245
		c0.008-8.781,2.842-16.256,8.941-22.819c-2.029,1.125-4.057,2.25-6.646,3.687c2.627-7.298,3.096-15.05,10.722-19.116
		c-1.31,0.312-2.619,0.625-3.923,0.937c-0.143-0.264-0.432-0.551-0.379-0.739c1.881-6.56,7.734-7.7,13.066-8.689
		c3.375-0.626,7.101,0.969,10.662,0.932c4.713-0.049,9.444-1.235,14.121-0.999c6.601,0.334,12.977,2.039,19.449,6.105
		c-3.237,0.723-5.378,1.2-7.518,1.678c0.066,0.537,0.132,1.075,0.197,1.613c2.508,0,5.122,0.466,7.505-0.079
		c12.007-2.744,23.24-0.084,31.359,8.407c8.771,9.173,20.081,12.825,30.477,18.653c5.434,3.046,10.521,7.37,14.505,12.165
		c4.403,5.301,7.402,11.777,10.903,17.805c0.431,0.742,0.188,1.875,0.312,3.582c-2.718-2.202-4.901-3.971-7.085-5.739
		c10.486,15.961,25.035,29.442,27.284,50.603c-4.847-1.402-8.765-2.536-12.683-3.67c-0.217,0.363-0.435,0.727-0.651,1.089
		c1.123,0.868,2.27,2.514,3.367,2.481c8.371-0.247,11.502,5.098,13.303,11.964c0.728,2.775,1.251,5.605,2.035,9.174
		c-4.908-2.802-9.131-7.304-14.102-0.666c-7.482-6.959-16.013-12.777-21.581-20.682c-5.273-7.485-7.442-17.159-10.977-25.871
		c-0.474,0.167-0.947,0.333-1.421,0.499c1.469,4.54,2.938,9.079,4.604,14.222c-4.007,0-7.843,0.858-11.078-0.17
		c-7.817-2.485-14.125,0.557-20.508,4.104c-0.45,0.068-0.91,0.126-1.37,0.185c1.088-5.327,1.001-10.801,5.411-15.284
		c3.316-3.371,5.396-8.02,7.761-12.248c2.584-4.62,4.608-9.608,11.061-9.977c2.319-0.133,4.608-0.805,6.911-1.23
		c-6.357-2.441-11.758-1.328-15.705,3.852c-2.333-2.577-4.403-4.863-6.663-7.359c1.142,4.385,3.192,8.024,2.639,11.211
		c-0.688,3.952-3.018,7.936-5.576,11.162c-3.07,3.872-6.461,7.03-7.218,12.511c-0.996,7.223-4.11,13.724-10.853,17.713
		c-6.293-7.056-11.419-10.096-13.868-8.343c11.985,8.206,11.994,8.219,10.434,15.069c-0.612-0.127-1.312-0.104-1.823-0.403
		c-7.23-4.213-15.059-5.501-23.303-4.944c-7.078,0.478-14.158,1.113-21.242,1.183c-2.463,0.023-4.94-1.439-7.151-2.141
		c0.105,3.726,5.128,6.157,11.364,5.092c6.774-1.158,13.727-2.872,20.449-2.356c9.575,0.734,19.22,3.049,25.982,10.883
		c4.923,5.702,9.164,11.987,13.971,17.797c7.296,8.817,7.312,18.713,4.345,28.885c-3.249,11.137-7.059,22.109-10.531,33.182
		c-1.563,4.988-3.355,9.971-4.217,15.095c-0.9,5.357-1.218,5.614-6.347,3.354c-8.566-3.775-11.91-12.294-17.748-18.54
		c-2.572-2.752-5.992-4.728-9.098-6.958c-1.46-1.049-4.189-1.688-4.378-2.835c-0.286-1.738,0.588-4.69,1.941-5.497
		c5.354-3.191,7.441-8.573,10.248-13.529c4.238-1.511,8.483-3.012,13.218-4.686c-4.752-2.163-11.226,0.529-13.102,4.852
		c-1.25-0.781-2.653-1.395-3.728-2.371c-9.025-8.206-19.474-11.198-31.276-8.026c-6.287,1.69-10.867,5.929-13.922,11.65
		c3.557-2.334,6.536-5.495,10.134-7.598c9.355-5.467,18.783-3.054,27.854,1.01c8.281,3.711,8.807,7.438,2.437,13.75
		c-1.062,1.053-2.023,2.57-3.311,2.969c-4.54,1.407-4.253,5.195-3.409,8.131c0.575,1.998,3.266,4.298,5.382,4.759
		c5.017,1.094,8.356,4.231,10.814,8.044c5.724,8.878,12.148,16.705,22.235,19.468c0.732,3.297,1.255,6.022,1.957,8.7
		c0.7,2.668,1.562,5.294,2.386,7.929c2.467,7.89,0.082,12.574-7.007,13.791c-0.15,0.025-0.219,0.523-0.562,1.415
		c8.733-1.667,14.706,3.924,21.505,7.581c-1.722-2.217-3.697-3.924-5.873-5.317c-3.351-2.147-5.21-4.492-5.062-9.043
		c0.161-4.963-0.855-10.146-2.315-14.941c-3.01-9.893-1.847-13.854,7.182-19.288c3.042-1.831,6.632-2.88,9.387-5.034
		c8.226-6.433,26.463-7.092,34.65-0.088c4.526,3.872,8.942,7.874,13.369,11.859c2.909,2.619,4.387,3.026,6.786,1.603
		c-0.342-0.362-0.606-0.892-1.005-1.027c-6.895-2.349-7.136-3.384-5.382-10.139c1.49-5.737,4.042-11.599,0.938-17.749
		c-0.312-0.619,0.944-2.896,1.771-3.081c4.956-1.116,9.811-3.558,15.147-1.56c0.972,0.363,2.34,0.045,3.411-0.305
		c3.159-1.032,6.261-2.237,8.762-3.148c-0.755-2.376-1.585-4.993-2.564-8.08c-0.72,0.888-1.335,1.305-1.435,1.82
		c-1.037,5.396-4.438,6.985-9.66,7.061c-5.447,0.078-10.88,1.122-16.639,1.781c-0.492-0.605-1.465-1.8-3.247-3.991
		c5.081,18.751,2.49,23.046-0.466,29.765c-0.575-0.342-1.233-0.571-1.67-1.019c-12.065-12.377-28.557-15.584-43.964-5.727
		c-4.809,3.076-10.145,5.328-15.486,8.085c-0.059-1.049-0.229-1.58-0.093-2.015c4.895-15.559,10.175-31.008,14.568-46.705
		c1.853-6.62,4.207-13.867,0.704-20.666c-2.674-5.188-6.14-10.006-9.588-14.745c-3.077-4.229-6.332-8.406-10.031-12.08
		c-3.143-3.122-3.756-8.297-0.501-11.117c3.225-2.794,6.52-5.517,9.583-8.479C407.898,241.29,408.078,239.719,408.578,238.48z
		 M311.593,469.062c0.354-0.123,0.708-0.246,1.062-0.369c1.398-2.435,2.206-6.044,4.299-7.096
		c7.897-3.969,16.671-5.738,25.371-4.485c6.665,0.959,12.92,4.598,19.582,5.788c8.189,1.465,16.764,2.749,23.677-4.328
		c7.495-7.674,17.103-10.755,27.456-11.609c7.11-0.587,9.089,0.881,11.316,7.583c0.92,2.77,0.981,5.814,1.761,8.645
		c1.688,6.125,3.13,12.388,5.607,18.195c1.135,2.658,4.48,4.372,6.823,6.516c-2.172-4.266-5.409-7.592-6.688-11.55
		c-3.085-9.543-5.254-19.381-7.798-29.123c3.328-0.361,7.172-0.778,10.554-1.146c3.282,3.185,6.485,6.292,9.688,9.399
		c0.587-0.62,1.173-1.24,1.76-1.86c-2.415-2.022-5.114-3.805-7.117-6.175c-0.926-1.096-1.157-3.625-0.561-5.012
		c2.427-5.645,6.153-10.854,7.815-16.675c2.973-10.415,4.771-21.134,3.308-32.146c-0.185-1.389,1.32-4.091,2.489-4.38
		c4.878-1.206,10.129-2.991,14.869-2.232c10.586,1.694,21.599,2.842,30.292,10.625c0.32-0.565,0.641-1.132,0.962-1.697
		c-2.878-1.889-5.756-3.776-8.748-5.739c12.246-7.286,18.024-18.158,15.013-28.922c-1.144,3.508-2.116,7.109-2.482,10.771
		c-1.098,10.956-11.193,17.699-21.585,14.979c-10.348-2.71-20.931-4.924-31.921,0.844c-2.293-6.668-4.497-13.078-6.701-19.488
		c-0.51,0.214-1.019,0.427-1.528,0.641c0.727,2.609,1.467,5.216,2.177,7.83c1.581,5.823,3.984,11.571,4.55,17.493
		c1.282,13.435-0.705,26.617-5.434,39.325c-1.952,5.247-4.992,9.559-10.953,10.23c-6.546,0.738-13.15,1.077-19.739,1.275
		c-9.807,0.294-18.047,3.926-25.299,10.467c-2.449,2.209-5.549,4.099-8.681,5.062c-6.937,2.135-14.007,0.609-20.44-1.893
		c-14.139-5.499-27.739-5.292-41.42,1.294c-1.788,0.86-4.432,0.197-6.623-0.13c-1.348-0.201-2.59-1.104-3.879-1.692
		c-0.223,0.497-0.445,0.994-0.668,1.492c2.75,1.473,5.5,2.946,7.598,4.07C311.455,466.024,311.523,467.543,311.593,469.062z
		 M335.941,193.985c11.277,4.979,22.769,8.849,32.894,14.978c5.992,3.626,9.984,10.697,14.487,16.52
		c0.873,1.128,0.667,4.395-0.32,5.341c-1.362,1.306-3.908,1.604-6.004,1.85c-1.896,0.222-3.868-0.206-5.807-0.347
		c-0.045,0.738-0.091,1.477-0.136,2.214c2.56,0.167,5.228,0.859,7.649,0.358c2.731-0.564,6.595-1.583,7.491-3.539
		c1.028-2.243,0.041-6.116-1.32-8.596c-2.564-4.671-6.025-8.851-8.764-12.737c2.514-2.988,4.749-5.978,7.354-8.601
		c1.276-1.285,3.175-2.038,4.902-2.775c6.454-2.755,13.328-4.761,19.342-8.257c7.503-4.362,9.407-11.374,5.754-17.924
		c1.177,7.692-1.376,13.426-8.323,16.862c-6.526,3.229-12.795,7.369-20.451,6.3c-2.088-13.46-9.685-22.682-19.092-30.717
		c4.048,6.479,8.436,12.737,12.786,19.021c4.813,6.953,4.835,13.817-0.062,20.203c-2.584,3.37-6.188,3.665-9.738,2.093
		c-7.458-3.304-14.681-7.158-22.212-10.274C343.185,194.636,339.461,194.608,335.941,193.985z M471.314,308.968
		c-1.427-9.103-5.378-16.337-14.264-20.118c-2.142-0.912-3.646-3.406-5.337-5.27c-3.816-4.204-7.117-9.028-11.485-12.532
		c-3.437-2.757-7.483-1.354-9.279,1.869c5.744-0.859,11.108-0.439,14.635,4.761c2.578,3.802,5.645,7.627,6.796,11.899
		c0.606,2.251-2.646,5.396-3.77,8.288c-2.486,6.399-4.729,12.893-7.07,19.349c0.51,0.212,1.019,0.424,1.528,0.636
		c0.39-0.586,0.909-1.122,1.148-1.764c2.46-6.587,4.567-13.326,7.389-19.752c2.888-6.579,5.576-6.819,10.953-1.636
		c1.048,1.01,1.951,2.229,2.689,3.488C467.335,301.743,469.301,305.37,471.314,308.968z M362.574,435.784
		c0.719-0.647,1.512-1.036,1.503-1.405c-0.14-5.759-0.371-11.516-0.609-17.272c-0.143-3.451-1.815-8.021-0.217-10.133
		c4.22-5.573,9.49-10.551,16.854-12.271c2.322-0.543,4.543-1.516,6.811-2.292c-0.808-1.213-1.441-1.653-1.95-1.539
		c-7.189,1.624-13.576,4.792-18.873,10.007c-4.831,4.757-7.056,4.632-11.964-0.075c-1.994-1.912-4.482-3.308-6.746-4.938
		c-0.521,0.398-1.04,0.797-1.56,1.196C362.335,405.352,363.04,420.093,362.574,435.784z M341.835,160.166
		c0.024,0.584,0.049,1.169,0.074,1.753c8.226-4.169,13.449,1.674,19.515,5.176c-1.488-3.261-7.642-4.788-3.834-9.298
		c2.227-2.638,6.056-3.922,8.988-5.708c-3.962-2.577-7.214-0.986-13.525,7.378c-6.63-3.9-13.312-7.831-19.993-11.762
		c-0.343,0.508-0.687,1.016-1.029,1.523c4.702,2.793,9.404,5.586,14.779,8.779C344.313,159.09,343.074,159.628,341.835,160.166z
		 M321.221,548.517c1.346,4.109,4.352,6.186,8.359,6.128c4.395-0.063,8.771-0.944,13.171-1.212
		c11.604-0.708,16.81-9.595,22.435-17.914c-2.067,1.228-3.816,2.841-5.34,4.644c-1.782,2.109-2.938,5.099-5.139,6.425
		c-3.584,2.16-7.699,4.227-11.761,4.632C335.695,551.945,327.845,554.612,321.221,548.517z M357.589,481.848
		c3.153,7.258,4.183,13.898-0.77,20.925c5.096-2.412,9.278-4.392,13.462-6.371c-0.165-0.405-0.331-0.811-0.496-1.217
		c-2.557,0.665-5.112,1.329-8.174,2.125C363.699,490.301,361.937,483.576,357.589,481.848z M457.421,218.833
		c-3.432-2.992-7.009-6.111-10.733-9.36c2.075,4.801,3.918,9.064,5.334,12.341C453.708,220.882,455.628,219.822,457.421,218.833z
		 M442.765,189.605c-3.504-4.013-7.343-8.409-10.866-12.444C432.069,183.815,437.86,190.166,442.765,189.605z M506.895,345.855
		c0.537-0.227,1.073-0.452,1.61-0.678c-1.669-4.413-3.338-8.826-5.008-13.239c-0.524,0.206-1.05,0.412-1.575,0.617
		C503.579,336.989,505.237,341.421,506.895,345.855z M509.521,410.015c-0.47-0.177-0.938-0.354-1.408-0.531
		c-1.625,3.72-3.249,7.439-4.874,11.158c0.639,0.249,1.278,0.498,1.917,0.746C506.611,417.597,508.066,413.806,509.521,410.015z"/>
	<path fill-rule="evenodd" clip-rule="evenodd" fill="#FFFFFF" d="M439.683,597.532c1.068-1.97,2.137-3.938,2.702-4.982
		c3.763,2.809,7.112,7.145,10.972,7.659c3.623,0.483,7.784-3.071,11.709-4.85c-0.148-0.46-0.297-0.92-0.445-1.38
		c-1.118,0.208-2.42,0.116-3.325,0.672c-9.432,5.782-11.579,5.418-15.903-4.628c-3.645-8.469-6.919-17.164-9.456-26.018
		c-1.416-4.942-0.993-10.41-1.405-15.641c-0.073-0.932-0.181-1.86-0.363-3.729c-1.11,1.897-1.916,2.877-2.302,4
		c-2.096,6.11-6.694,8.551-12.922,6.626c-3.099-0.958-6.146-2.088-9.199-3.185c-3.425-1.23-4.591-3.479-2.038-6.376
		c5.032-5.712,10.005-11.539,15.584-16.688c4.543-4.192,9.558-8.222,15.045-10.956c6.921-3.449,14.503-5.601,21.863-8.13
		c3.853-1.325,7.839-2.261,12.271-3.516c-0.628-0.812-1.288-2.068-1.582-1.988c-9.454,2.599-18.872,5.326-28.965,8.227
		c-0.172-2.579-0.339-5.083-0.507-7.586c0.391,0.353,0.781,0.706,1.171,1.059c4.648-3.055,8.967-6.905,14.016-8.991
		c9.178-3.791,18.942-8.165,28.852-3.666c5.315,2.413,8.902,7.858,10.62,13.849c1.567,5.463,4.806,9.085,10.211,11.177
		c7.619,2.949,9.674,7.972,7.021,15.834c-0.934,2.764-1.76,5.584-2.944,8.24c-3.17,7.106-9.502,9.274-16.528,10.753
		c-7.307,1.537-14.485,3.697-21.683,5.716c-0.859,0.24-1.489,1.297-2.121,1.88c5.654-1.121,11.149-2.163,16.622-3.311
		c5.342-1.12,10.661-2.348,16.242-3.583c1.535,8.436-2.79,13.91-5.618,19.639c-6.442,13.053-12.983,26.091-20.289,38.668
		c-3.428,5.9-8.648,10.781-13.22,15.979c-0.915,1.04-2.7,2.187-3.867,1.99c-7.411-1.245-11.76,4.577-17.23,7.448
		c-8.312,4.361-16.426,9.306-23.932,14.928c-5.443,4.076-10.199,9.303-14.486,14.639c-6.438,8.013-14.225,13.27-24.383,15.041
		c-5.68,0.99-11.085-0.36-16.659-1.039c-5.507-0.67-11.263,0.709-16.909,1.189c-0.042,0.405-0.083,0.811-0.125,1.217
		c1.051,0.363,2.095,1.018,3.154,1.044c7.161,0.183,14.345-0.059,21.485,0.391c12.158,0.765,22.372-3.601,31.021-11.615
		c5.188-4.808,9.483-10.564,14.447-15.632c2.463-2.514,5.529-4.434,8.323-6.623c0.382,0.312,0.764,0.622,1.146,0.934
		c-2.478,3.952-4.539,8.254-7.514,11.787c-7.604,9.031-15.038,18.343-23.663,26.329c-5.952,5.511-13.946,7.899-22.455,4.474
		c-1.162-0.468-2.694-0.011-4.055,0.007c-7.664,0.099-15.373,0.695-22.967,0.014c-2.606-0.233-5.813-3.18-7.213-5.729
		c-4.336-7.9-7.934-16.205-12.066-24.873c4.953,0.405,10.548,1.747,15.913,1.121c11.513-1.344,23.712-0.392,32.96-10.381
		c2.827-3.053,8.638-3.326,13.065-4.921c2.105-0.758,4.171-1.629,6.255-2.448c-0.203-0.546-0.405-1.093-0.607-1.639
		c-3.181,1.115-6.332,2.321-9.546,3.328c-8.801,2.757-17.352,0.333-20.784-5.803c-2.272-4.061-1.387-5.231,3.144-6.062
		c5.588-1.025,11.053-2.729,16.554-4.2c0.513-0.138,0.906-0.721,1.056-1.881c-0.756,0.122-1.607,0.06-2.253,0.394
		c-8.241,4.264-16.694,3.764-25.416,1.709c-2.161-0.509-4.725,0.902-7.132,1.19c-5.081,0.608-10.182,1.058-16.617,1.708
		c6.104,1.918,11.273,1.886,16.153,0.605c6.886-1.806,7.735-1.278,10.964,4.475c2.174,3.872,5.688,7.246,9.249,10.01
		c3.238,2.514,3.199,4.354-0.208,5.543c-6.44,2.249-13.001,4.657-19.702,5.517c-7.379,0.945-14.98,0.446-22.469,0.166
		c-8.524-0.318-15.164-5.888-18.23-13.443c-3.41-8.402-4.163-17.127-4.222-26.103c-0.084-12.757-0.753-25.509-1.14-38.265
		c-0.044-1.468,0.127-2.941,0.251-5.492c8.712,2.258,17.06,4.07,25.169,6.633c6.567,2.075,12.663,0.487,18.941-0.797
		c4.463-0.913,8.947-2.01,13.468-2.3c14.473-0.929,28.286-4.127,40.778-11.647c5.054-3.042,9.272-8.48,6.372-16.512
		c7.952,2.355,15.629,5.446,22.453,1.037c3.109,8.606,6.261,17.248,9.346,25.914c1.377,3.868,2.945,7.696,0.269,11.79
		c-0.639,0.977-0.145,2.695-0.171,4.07c-1.264,0.445-2.611,0.736-3.775,1.366c-4.684,2.532-9.298,5.192-13.972,7.744
		c-0.668,0.365-1.519,0.397-2.284,0.584c0.44,0.566,0.881,1.134,1.321,1.7c2.497-0.88,5.279-1.324,7.43-2.733
		C432.359,603.614,435.943,600.455,439.683,597.532z M411.621,594.646c-0.289-0.291-0.578-0.582-0.867-0.874
		c-1.091,0.897-2.303,1.682-3.253,2.709c-6.904,7.462-15.385,12.299-25.239,14.394c-8.124,1.726-16.41,2.682-24.592,4.155
		c-2.839,0.512-5.583,1.553-8.369,2.352c0.146,0.499,0.293,0.997,0.439,1.496c4.107-0.776,8.222-1.516,12.319-2.335
		c9.411-1.881,19.022-3.127,28.141-5.957c5.457-1.694,9.775-3.672,13.463,2.291c0.283,0.459,1.189,0.488,1.727,0.839
		c6.271,4.104,12.91,8.071,10.765,17.312c-0.699,3.014-2.01,5.886-3.056,8.864c0.223,0,0.928,0.198,1.113-0.028
		c8.058-9.84,6.213-18.794-4.056-25.142c-3.238-2.001-5.741-5.191-8.501-7.763C405.483,602.229,408.552,598.437,411.621,594.646z"/>
	<path fill-rule="evenodd" clip-rule="evenodd" fill="#FFFFFF" d="M522.71,499.638c3.343-6.111,7.389-11.64,4.97-19.861
		c-1.494-5.075-0.38-10.891-0.643-16.363c-0.269-5.586-0.5-11.203-1.327-16.72c-0.395-2.627-2.133-5.054-3.603-8.328
		c2.211-0.366,5.128-1.743,6.962-0.863c1.419,0.681,2.085,4.199,2.044,6.438c-0.207,11.238-1.389,22.489-1.034,33.698
		c0.496,15.69-4.114,30.004-9.865,44.162c-0.555,1.365-1.691,2.495-2.001,2.938c-4.372-3.071-7.904-6.234-12-8.256
		c-5.032-2.484-6.771-6.835-8.563-11.479c-3.041-7.876-7.788-13.15-16.852-15.236c-6.416-1.476-11.168,1.243-16.625,2.392
		c-0.771,0.162-1.527,0.394-2.298,0.554c-0.118,0.025-0.28-0.159-1.104-0.67c1.243-1.471,2.4-2.884,3.606-4.256
		c7.689-8.752,17.067-16.606,20.646-27.968c3.663-11.633,12.669-13.8,22.396-15.872c2.714-0.577,5.479-1.031,8.099-1.905
		c4.796-1.602,6.991-0.94,8.198,3.812c1.57,6.181,2.615,12.244,1.005,18.955c-1.2,4.996-0.238,10.927,1.214,16.028
		c1.498,5.262-0.319,9.2-2.375,13.452c-0.758,1.566-1.453,3.162-2.177,4.745C521.825,499.237,522.268,499.437,522.71,499.638z"/>
	<path fill-rule="evenodd" clip-rule="evenodd" fill="#FFFFFF" d="M132.424,266.554c-7.549,9.662-13.017,21.078-25.117,29.121
		c0.792-3.456,1.088-5.691,1.819-7.773c2.615-7.445,5.242-14.882,11.549-20.275C125.024,263.909,128.654,263.433,132.424,266.554z"
		/>
	<path fill-rule="evenodd" clip-rule="evenodd" d="M183.052,584.167c5.812,5.857,11.549,11.793,17.478,17.529
		c1.97,1.906,4.21,4.04,6.711,4.792c7.459,2.244,15.057,4.114,22.701,5.621c4.954,0.978,10.083,1.082,15.135,1.545
		c4.785,0.438,10.792,5.449,12.643,11.129c-2.526-2.235-4.511-4.11-6.621-5.832c-4.01-3.273-8.174-4.476-13.649-3.177
		c-3.874,0.919-8.445-0.059-12.478-1.084c-7.079-1.8-13.984-4.284-19.601-6.054c-4.174,2.921-7.354,6.2-11.219,7.646
		c-10.188,3.807-11.826,9.333-4.365,17.103c0.866,0.901,1.604,1.926,1.848,3.365c-3.895-2.861-8.741-5.368-8.895-10.84
		c-0.123-4.361,2.205-8.049,6.862-9.772c2.601-0.963,4.944-2.601,7.455-3.831c3.405-1.669,4.249-4.637,2.34-7.367
		c-3.064-4.385-6.774-8.344-10.434-12.277c-2.29-2.462-4.986-4.547-7.5-6.801C181.992,585.296,182.522,584.731,183.052,584.167z"/>
	<path fill-rule="evenodd" clip-rule="evenodd" d="M240.438,635.795c-10.751,3.4-20.141,1.302-23.154-4.725
		c6.091,5.178,13.251,3.66,20.109,3.521c4.716-0.097,9.408-1.143,14.128-1.336c5.985-0.247,11.987-0.06,18.607-0.06
		c-2.459,0.989-4.699,2.563-7.009,2.675c-4.236,0.203-8.515-0.431-12.772-0.765c-3.578-0.281-6.169-0.89-8.517,3.959
		c-2.682,5.537-8.339,9.634-13.011,14.69c6.312,5.52,15.604,5.471,25.348,7.843c-6.903,1.812-21.292-1.916-26.367-5.583
		c-2.1-1.517-4.884-2.07-7.323-3.138c-2.004-0.876-3.959-1.865-5.82-3.5c8.277,2.507,15.404,0.679,21.286-5.051
		C237.849,642.469,238.592,639.419,240.438,635.795z"/>
	<path fill-rule="evenodd" clip-rule="evenodd" d="M187.544,177.84c4.045,4.526,7.341,10.145,12.237,13.185
		c5.576,3.462,12.58,4.625,20.186,7.201c-1.569-15.121,6.568-23.713,16.971-31.211c-10.854,11.294-20.394,22.855-10.294,39.138
		c-3.653-2.293-7.216-4.976-11.161-6.855c-2.733-1.302-6.066-1.272-9.003-2.231c-7.572-2.474-13.458-7.231-17.462-14.107
		C188.037,181.274,187.889,179.103,187.544,177.84z"/>
	<path fill-rule="evenodd" clip-rule="evenodd" d="M239.534,432.333c-0.493-1.363-1.527-2.787-1.383-4.08
		c0.594-5.336,1.23-10.706,2.458-15.922c1.08-4.589,1.024-7.957-3.854-10.475c-6.622-3.417-12.898-7.503-19.192-11.225
		c2.144-1.731,9.495,1.84,24.091,12.098c4.557-2.652,8.941-5.282,13.448-7.681c0.382-0.203,1.589,1.145,2.79,2.06
		c-7.997,0.748-11.841,3.887-14.087,11.307c-1.465,4.843-3.017,9.698-3.906,14.66c-0.498,2.775,0.277,5.779,0.479,8.681
		C240.097,431.948,239.816,432.14,239.534,432.333z"/>
	<path fill-rule="evenodd" clip-rule="evenodd" d="M140.957,292.867c1.379-1.671,2.472-4.324,4.191-4.823
		c4.606-1.339,6.987-4.39,8.903-8.368c0.681-1.413,2.063-2.487,4.044-3.161c-1.41,2.684-3.011,5.289-4.155,8.082
		c-0.621,1.516-0.98,3.488-0.573,5.019c2.385,8.963,5.07,17.846,7.523,26.79c0.217,0.791-0.501,1.837-1.935,2.732
		c-1.212-5.117-2.28-10.275-3.678-15.342c-1.255-4.553-2.708-9.072-4.483-13.44c-0.312-0.767-2.834-1.296-3.997-0.911
		c-2.122,0.703-3.99,2.172-5.964,3.32L140.957,292.867z"/>
	<path fill-rule="evenodd" clip-rule="evenodd" d="M241.706,541.821c13.642,10.615,28.653,12.649,45.447,8.754
		c-2.646,1.386-5.264,3.895-7.944,3.962c-11.522,0.292-22.949-0.78-33.149-6.955c-1.902-1.151-3.34-3.067-4.993-4.63
		C241.28,542.575,241.493,542.198,241.706,541.821z"/>
	<path fill-rule="evenodd" clip-rule="evenodd" d="M262.303,150.217c-1.11,2.308-2.22,4.615-3.506,7.289
		c1.513,0.92,3.613,2.199,5.714,3.478c-0.124,0.263-0.248,0.525-0.372,0.789c-3.375-0.845-6.767-2.405-10.123-2.331
		c-3.329,0.074-6.622,1.795-10.478,2.959c1.202-1.572,2.39-3.127,4.003-5.236c-1.096-1.921-2.413-4.231-3.731-6.542
		c0.213-0.238,0.426-0.478,0.639-0.716c1.072,0.969,2.37,1.78,3.179,2.935c3.372,4.808,6.297,5.124,10.604,1.009
		c1.311-1.252,2.709-2.412,4.067-3.615L262.303,150.217z"/>
	<path fill-rule="evenodd" clip-rule="evenodd" d="M244.017,480.605c-4.619,9.058-1.044,16.943,3.387,24.972
		c-4.392-2.911-5.814-10.743-13.845-6.15c0.054-0.651,0.107-1.303,0.161-1.954c2.196-0.772,4.392-1.545,6.965-2.45
		C239.296,489.822,238.139,484.256,244.017,480.605z"/>
	<path fill-rule="evenodd" clip-rule="evenodd" d="M236.43,204.816c4.868-6.259,20.321-11.82,29.294-10.485
		c-2.918,0.854-5.839,1.703-8.755,2.564c-3.414,1.007-6.895,1.839-10.215,3.094C243.629,201.17,240.677,202.804,236.43,204.816z"/>
	<path fill-rule="evenodd" clip-rule="evenodd" d="M229.765,210c-5.615,7.198-15.563,13.275-3.536,24.058
		c-5.974-1.524-7.87-4.305-7.848-8.665C218.413,219.213,223.723,211.679,229.765,210z"/>
	<path fill-rule="evenodd" clip-rule="evenodd" d="M143.501,215.518c8.562,2.558,9.557-6.302,15.411-8.291
		c-4.327,4.781-7.686,9.847-6.2,17.039c-0.66-0.126-1.319-0.252-1.979-0.377c-0.48-1.721-0.96-3.441-1.458-5.223
		c-1.702-0.42-3.43-0.846-5.157-1.271C143.913,216.769,143.707,216.144,143.501,215.518z"/>
	<path fill-rule="evenodd" clip-rule="evenodd" d="M273.06,141.955c-4.532,0.409-9.064,0.818-13.597,1.228
		c3.866-3.916,8.512-3.866,13.303-3.048C272.863,140.741,272.961,141.348,273.06,141.955z"/>
	<path fill-rule="evenodd" clip-rule="evenodd" d="M177.542,276.541c-4.917-2.966-8.382-11.529-16.007-2.608
		c2.048-5.162,2.626-5.383,7.61-5.267C174.279,268.785,175.817,272.592,177.542,276.541z"/>
	<path fill-rule="evenodd" clip-rule="evenodd" d="M262.301,150.235c4.26-1.62,8.434-4.006,13.068-2.287
		c0.054,0.516,0.108,1.03,0.162,1.545c-4.41,0.243-8.819,0.485-13.228,0.727C262.303,150.217,262.301,150.235,262.301,150.235z"/>
	<path fill-rule="evenodd" clip-rule="evenodd" d="M140.833,292.764c-1.074,4.497-2.147,8.994-3.221,13.491
		c-0.792-0.288-1.584-0.576-2.376-0.864c1.909-4.174,3.817-8.347,5.723-12.522C140.957,292.867,140.833,292.764,140.833,292.764z"/>
	<path fill-rule="evenodd" clip-rule="evenodd" d="M96.45,415.86c-1.556-3.342-3.113-6.684-4.669-10.025
		c0.589-0.272,1.179-0.544,1.768-0.815c1.49,3.323,2.979,6.646,4.469,9.969C97.496,415.278,96.973,415.569,96.45,415.86z"/>
	<path fill-rule="evenodd" clip-rule="evenodd" d="M374.146,314.151c-2.814,4.946-4.902,10.328-10.256,13.52
		c-1.354,0.807-2.228,3.759-1.941,5.497c0.188,1.147,2.918,1.786,4.378,2.835c3.105,2.23,6.525,4.206,9.098,6.958
		c5.838,6.246,9.182,14.765,17.748,18.54c5.129,2.261,5.446,2.004,6.347-3.354c0.861-5.124,2.653-10.106,4.217-15.095
		c3.473-11.072,7.282-22.045,10.531-33.182c2.968-10.172,2.951-20.067-4.345-28.885c-4.807-5.81-9.048-12.095-13.971-17.797
		c-6.763-7.834-16.407-10.148-25.982-10.883c-6.723-0.516-13.675,1.198-20.449,2.356c-6.236,1.065-11.259-1.366-11.364-5.092
		c2.211,0.701,4.688,2.164,7.151,2.141c7.084-0.069,14.164-0.705,21.242-1.183c8.244-0.557,16.072,0.731,23.303,4.944
		c0.512,0.299,1.211,0.276,1.823,0.403c1.561-6.851,1.552-6.863-10.434-15.069c2.449-1.753,7.575,1.287,13.868,8.343
		c6.742-3.989,9.856-10.49,10.853-17.713c0.757-5.48,4.147-8.639,7.218-12.511c2.559-3.227,4.889-7.21,5.576-11.162
		c0.554-3.187-1.497-6.826-2.639-11.211c2.26,2.496,4.33,4.782,6.663,7.359c3.947-5.18,9.348-6.293,15.705-3.852
		c-2.303,0.426-4.592,1.098-6.911,1.23c-6.452,0.368-8.477,5.356-11.061,9.977c-2.365,4.229-4.444,8.877-7.761,12.248
		c-4.41,4.483-4.323,9.957-5.411,15.284c0.46-0.059,0.92-0.116,1.37-0.185c-0.01-0.009-0.121-0.123-0.127-0.13
		c-0.507,1.233-0.687,2.804-1.564,3.652c-3.063,2.962-6.358,5.685-9.583,8.479c-3.255,2.82-2.642,7.995,0.501,11.117
		c3.699,3.674,6.954,7.852,10.031,12.08c3.448,4.739,6.914,9.558,9.588,14.745c3.503,6.799,1.148,14.046-0.704,20.666
		c-4.394,15.697-9.674,31.146-14.568,46.705c-0.137,0.435,0.034,0.966,0.093,2.015c5.342-2.757,10.678-5.009,15.486-8.085
		c15.407-9.857,31.898-6.65,43.964,5.727c0.437,0.447,1.095,0.677,1.67,1.019c2.956-6.719,5.547-11.014,0.466-29.765
		c1.782,2.191,2.755,3.386,3.247,3.991c5.759-0.659,11.191-1.703,16.639-1.781c5.222-0.075,8.623-1.664,9.66-7.061
		c0.1-0.516,0.715-0.933,1.435-1.82c0.979,3.087,1.81,5.704,2.564,8.08c-2.501,0.911-5.603,2.116-8.762,3.148
		c-1.071,0.35-2.439,0.668-3.411,0.305c-5.337-1.998-10.191,0.443-15.147,1.56c-0.826,0.186-2.083,2.462-1.771,3.081
		c3.104,6.15,0.553,12.012-0.938,17.749c-1.754,6.755-1.513,7.79,5.382,10.139c0.398,0.136,0.663,0.665,1.005,1.027
		c-2.399,1.424-3.877,1.017-6.786-1.603c-4.427-3.985-8.843-7.987-13.369-11.859c-8.188-7.004-26.425-6.345-34.65,0.088
		c-2.755,2.154-6.345,3.203-9.387,5.034c-9.028,5.435-10.191,9.396-7.182,19.288c1.46,4.796,2.477,9.979,2.315,14.941
		c-0.148,4.551,1.711,6.896,5.062,9.043c2.176,1.394,4.151,3.101,5.873,5.317c-6.799-3.657-12.771-9.248-21.505-7.581
		c0.343-0.892,0.411-1.39,0.562-1.415c7.089-1.217,9.474-5.901,7.007-13.791c-0.823-2.635-1.686-5.261-2.386-7.929
		c-0.702-2.678-1.225-5.403-1.957-8.7c-10.087-2.763-16.512-10.59-22.235-19.468c-2.458-3.812-5.798-6.95-10.814-8.044
		c-2.116-0.461-4.807-2.761-5.382-4.759c-0.844-2.936-1.131-6.724,3.409-8.131c1.287-0.398,2.248-1.916,3.311-2.969
		c6.37-6.312,5.845-10.039-2.437-13.75c-9.07-4.063-18.498-6.477-27.854-1.01c-3.598,2.103-6.577,5.264-10.134,7.598
		c3.055-5.722,7.635-9.96,13.922-11.65c11.803-3.172,22.251-0.18,31.276,8.026c1.074,0.977,2.478,1.59,3.728,2.371L374.146,314.151z
		"/>
	<path fill-rule="evenodd" clip-rule="evenodd" d="M311.593,469.062c-0.069-1.519-0.138-3.038-0.237-5.223
		c-2.098-1.124-4.848-2.598-7.598-4.07c0.223-0.498,0.445-0.995,0.668-1.492c1.289,0.588,2.531,1.491,3.879,1.692
		c2.191,0.327,4.835,0.99,6.623,0.13c13.681-6.586,27.281-6.793,41.42-1.294c6.434,2.502,13.504,4.027,20.44,1.893
		c3.132-0.964,6.231-2.854,8.681-5.062c7.252-6.541,15.492-10.173,25.299-10.467c6.589-0.198,13.193-0.537,19.739-1.275
		c5.961-0.672,9.001-4.983,10.953-10.23c4.729-12.708,6.716-25.891,5.434-39.325c-0.565-5.922-2.969-11.67-4.55-17.493
		c-0.71-2.614-1.45-5.221-2.177-7.83c0.51-0.214,1.019-0.427,1.528-0.641c2.204,6.41,4.408,12.82,6.701,19.488
		c10.99-5.768,21.573-3.554,31.921-0.844c10.392,2.721,20.487-4.022,21.585-14.979c0.366-3.661,1.339-7.263,2.482-10.771
		c3.012,10.764-2.767,21.636-15.013,28.922c2.992,1.963,5.87,3.851,8.748,5.739c-0.321,0.565-0.642,1.132-0.962,1.697
		c-8.693-7.783-19.706-8.931-30.292-10.625c-4.74-0.759-9.991,1.026-14.869,2.232c-1.169,0.289-2.674,2.991-2.489,4.38
		c1.464,11.012-0.335,21.73-3.308,32.146c-1.662,5.821-5.389,11.03-7.815,16.675c-0.597,1.387-0.365,3.916,0.561,5.012
		c2.003,2.37,4.702,4.152,7.117,6.175c-0.587,0.62-1.173,1.24-1.76,1.86c-3.203-3.107-6.406-6.215-9.688-9.399
		c-3.382,0.367-7.226,0.784-10.554,1.146c2.544,9.742,4.713,19.58,7.798,29.123c1.279,3.958,4.517,7.284,6.688,11.55
		c-2.343-2.144-5.688-3.857-6.823-6.516c-2.478-5.808-3.919-12.07-5.607-18.195c-0.779-2.83-0.841-5.875-1.761-8.645
		c-2.228-6.702-4.206-8.17-11.316-7.583c-10.354,0.854-19.961,3.936-27.456,11.609c-6.913,7.077-15.487,5.793-23.677,4.328
		c-6.662-1.19-12.917-4.829-19.582-5.788c-8.7-1.253-17.474,0.517-25.371,4.485c-2.093,1.052-2.9,4.661-4.299,7.096
		C312.301,468.816,311.947,468.939,311.593,469.062z"/>
	<path fill-rule="evenodd" clip-rule="evenodd" d="M335.941,193.985c3.52,0.623,7.243,0.651,10.432,1.972
		c7.531,3.116,14.754,6.971,22.212,10.274c3.551,1.572,7.154,1.277,9.738-2.093c4.896-6.386,4.875-13.25,0.062-20.203
		c-4.351-6.283-8.738-12.541-12.786-19.021c9.407,8.035,17.004,17.257,19.092,30.717c7.656,1.069,13.925-3.07,20.451-6.3
		c6.947-3.437,9.5-9.17,8.323-16.862c3.653,6.55,1.749,13.562-5.754,17.924c-6.014,3.496-12.888,5.502-19.342,8.257
		c-1.728,0.737-3.626,1.49-4.902,2.775c-2.605,2.623-4.841,5.612-7.354,8.601c2.738,3.887,6.199,8.066,8.764,12.737
		c1.361,2.479,2.349,6.353,1.32,8.596c-0.896,1.956-4.76,2.975-7.491,3.539c-2.422,0.501-5.09-0.191-7.649-0.358
		c0.045-0.737,0.091-1.476,0.136-2.214c1.938,0.141,3.91,0.568,5.807,0.347c2.096-0.245,4.642-0.544,6.004-1.85
		c0.987-0.946,1.193-4.213,0.32-5.341c-4.503-5.822-8.495-12.894-14.487-16.52C358.71,202.833,347.219,198.963,335.941,193.985z"/>
	<path fill-rule="evenodd" clip-rule="evenodd" d="M471.314,308.968c-2.014-3.599-3.979-7.226-6.066-10.781
		c-0.738-1.259-1.642-2.479-2.689-3.488c-5.377-5.184-8.065-4.943-10.953,1.636c-2.821,6.426-4.929,13.165-7.389,19.752
		c-0.239,0.642-0.759,1.178-1.148,1.764c-0.51-0.212-1.019-0.424-1.528-0.636c2.342-6.456,4.584-12.949,7.07-19.349
		c1.124-2.892,4.376-6.037,3.77-8.288c-1.151-4.272-4.218-8.098-6.796-11.899c-3.526-5.2-8.891-5.62-14.635-4.761
		c1.796-3.224,5.843-4.626,9.279-1.869c4.368,3.504,7.669,8.328,11.485,12.532c1.69,1.863,3.195,4.357,5.337,5.27
		C465.937,292.631,469.888,299.866,471.314,308.968z"/>
	<path fill-rule="evenodd" clip-rule="evenodd" d="M362.574,435.784c0.466-15.69-0.239-30.432-16.751-38.724
		c0.52-0.399,1.039-0.798,1.56-1.196c2.264,1.631,4.752,3.026,6.746,4.938c4.908,4.707,7.133,4.832,11.964,0.075
		c5.297-5.215,11.684-8.383,18.873-10.007c0.509-0.114,1.143,0.326,1.95,1.539c-2.268,0.776-4.488,1.749-6.811,2.292
		c-7.364,1.721-12.635,6.698-16.854,12.271c-1.599,2.111,0.074,6.682,0.217,10.133c0.238,5.757,0.47,11.514,0.609,17.272
		C364.086,434.748,363.293,435.136,362.574,435.784z"/>
	<path fill-rule="evenodd" clip-rule="evenodd" d="M341.835,160.166c1.239-0.537,2.479-1.075,4.975-2.158
		c-5.375-3.193-10.077-5.986-14.779-8.779c0.343-0.508,0.687-1.016,1.029-1.523c6.682,3.931,13.363,7.861,19.993,11.762
		c6.312-8.364,9.563-9.955,13.525-7.378c-2.933,1.786-6.762,3.07-8.988,5.708c-3.808,4.51,2.346,6.037,3.834,9.298
		c-6.065-3.502-11.289-9.345-19.515-5.176C341.884,161.334,341.859,160.75,341.835,160.166z"/>
	<path fill-rule="evenodd" clip-rule="evenodd" d="M321.221,548.517c6.624,6.095,14.475,3.428,21.726,2.702
		c4.062-0.405,8.177-2.472,11.761-4.632c2.2-1.326,3.356-4.315,5.139-6.425c1.523-1.803,3.272-3.416,5.34-4.644
		c-5.625,8.319-10.83,17.206-22.435,17.914c-4.4,0.268-8.776,1.148-13.171,1.212C325.572,554.703,322.566,552.626,321.221,548.517z"
		/>
	<path fill-rule="evenodd" clip-rule="evenodd" d="M357.589,481.848c4.348,1.728,6.11,8.453,4.022,15.462
		c3.062-0.796,5.617-1.46,8.174-2.125c0.165,0.406,0.331,0.812,0.496,1.217c-4.184,1.979-8.366,3.959-13.462,6.371
		C361.771,495.747,360.742,489.106,357.589,481.848z"/>
	<path fill-rule="evenodd" clip-rule="evenodd" d="M457.421,218.833c-1.793,0.989-3.713,2.05-5.399,2.98
		c-1.416-3.276-3.259-7.54-5.334-12.341C450.412,212.721,453.989,215.84,457.421,218.833z"/>
	<path fill-rule="evenodd" clip-rule="evenodd" d="M442.765,189.605c-4.904,0.561-10.695-5.79-10.866-12.444
		C435.422,181.196,439.261,185.592,442.765,189.605z"/>
	<path fill-rule="evenodd" clip-rule="evenodd" d="M374.254,314.307c1.876-4.322,8.35-7.015,13.102-4.852
		c-4.734,1.674-8.979,3.175-13.218,4.686C374.146,314.151,374.254,314.307,374.254,314.307z"/>
	<path fill-rule="evenodd" clip-rule="evenodd" d="M506.895,345.855c-1.657-4.434-3.315-8.866-4.973-13.3
		c0.525-0.205,1.051-0.411,1.575-0.617c1.67,4.413,3.339,8.826,5.008,13.239C507.968,345.403,507.432,345.628,506.895,345.855z"/>
	<path fill-rule="evenodd" clip-rule="evenodd" d="M509.521,410.015c-1.455,3.791-2.91,7.582-4.365,11.373
		c-0.639-0.248-1.278-0.497-1.917-0.746c1.625-3.719,3.249-7.438,4.874-11.158C508.583,409.661,509.052,409.838,509.521,410.015z"/>
	<path fill-rule="evenodd" clip-rule="evenodd" d="M411.621,594.646c-3.069,3.791-6.138,7.583-9.966,12.312
		c2.76,2.571,5.263,5.762,8.501,7.763c10.269,6.348,12.113,15.302,4.056,25.142c-0.186,0.227-0.891,0.028-1.113,0.028
		c1.046-2.979,2.356-5.851,3.056-8.864c2.146-9.24-4.493-13.207-10.765-17.312c-0.537-0.351-1.443-0.38-1.727-0.839
		c-3.688-5.963-8.006-3.985-13.463-2.291c-9.118,2.83-18.729,4.076-28.141,5.957c-4.098,0.819-8.212,1.559-12.319,2.335
		c-0.146-0.499-0.293-0.997-0.439-1.496c2.786-0.799,5.53-1.84,8.369-2.352c8.182-1.474,16.468-2.43,24.592-4.155
		c9.854-2.095,18.335-6.932,25.239-14.394c0.95-1.027,2.162-1.812,3.253-2.709C411.043,594.064,411.332,594.355,411.621,594.646z"/>
	<path fill-rule="evenodd" clip-rule="evenodd" d="M439.683,597.532c-3.739,2.923-7.323,6.082-11.28,8.674
		c-2.15,1.409-4.933,1.854-7.43,2.733c-0.44-0.566-0.881-1.134-1.321-1.7c0.766-0.187,1.616-0.219,2.284-0.584
		c4.674-2.552,9.288-5.212,13.972-7.744c1.164-0.63,2.512-0.921,3.775-1.366C439.683,597.546,439.683,597.532,439.683,597.532z"/>
</g>
</svg>
